<?xml version="1.0" encoding="utf-8" ?>
<svg baseProfile="full" height="1600" version="1.1" viewBox="0 0 1600 1600" width="1600" xmlns="http://www.w3.org/2000/svg" xmlns:ev="http://www.w3.org/2001/xml-events" xmlns:xlink="http://www.w3.org/1999/xlink"><defs /><path d="M 818.00,1137.50 L 817.00,1137.50 L 816.50,1137.00 L 816.00,1136.50 L 815.50,1136.00 L 815.50,1135.00 L 815.50,1134.00 L 815.50,1133.00 L 815.50,1132.00 L 815.00,1131.50 L 814.50,1131.00 L 814.50,1130.00 L 814.50,1129.00 L 814.00,1128.50 L 813.50,1128.00 L 813.50,1127.00 L 813.50,1126.00 L 813.50,1125.00 L 813.50,1124.00 L 813.00,1123.50 L 812.50,1123.00 L 812.50,1122.00 L 812.50,1121.00 L 812.00,1120.50 L 811.50,1120.00 L 811.50,1119.00 L 811.50,1118.00 L 811.50,1117.00 L 811.50,1116.00 L 811.00,1115.50 L 810.50,1115.00 L 810.50,1114.00 L 810.50,1113.00 L 810.50,1112.00 L 810.00,1111.50 L 809.50,1111.00 L 809.50,1110.00 L 809.50,1109.00 L 809.50,1108.00 L 809.50,1107.00 L 809.00,1106.50 L 808.50,1106.00 L 808.50,1105.00 L 808.00,1104.50 L 807.50,1104.00 L 807.50,1103.00 L 807.50,1102.00 L 807.50,1101.00 L 807.50,1100.00 L 807.50,1099.00 L 807.00,1098.50 L 806.50,1098.00 L 806.50,1097.00 L 806.50,1096.00 L 806.00,1095.50 L 805.50,1095.00 L 805.50,1094.00 L 805.50,1093.00 L 805.50,1092.00 L 805.50,1091.00 L 805.00,1090.50 L 804.50,1090.00 L 804.50,1089.00 L 804.50,1088.00 L 804.50,1087.00 L 804.00,1086.50 L 803.50,1086.00 L 803.50,1085.00 L 803.50,1084.00 L 803.50,1083.00 L 803.50,1082.00 L 803.00,1081.50 L 802.50,1081.00 L 802.50,1080.00 L 802.50,1079.00 L 802.00,1078.50 L 801.50,1078.00 L 801.50,1077.00 L 801.50,1076.00 L 801.50,1075.00 L 801.50,1074.00 L 801.00,1073.50 L 800.50,1073.00 L 800.50,1072.00 L 800.50,1071.00 L 800.00,1070.50 L 799.50,1070.00 L 799.50,1069.00 L 799.50,1068.00 L 799.50,1067.00 L 799.50,1066.00 L 799.00,1065.50 L 798.50,1065.00 L 798.50,1064.00 L 798.50,1063.00 L 798.50,1062.00 L 798.00,1061.50 L 797.50,1061.00 L 797.50,1060.00 L 797.50,1059.00 L 797.50,1058.00 L 797.00,1057.50 L 796.50,1057.00 L 796.50,1056.00 L 796.50,1055.00 L 796.50,1054.00 L 796.00,1053.50 L 795.50,1053.00 L 795.50,1052.00 L 795.50,1051.00 L 795.50,1050.00 L 795.50,1049.00 L 795.50,1048.00 L 795.00,1047.50 L 794.50,1047.00 L 794.50,1046.00 L 794.50,1045.00 L 794.00,1044.50 L 793.50,1044.00 L 793.50,1043.00 L 793.50,1042.00 L 793.50,1041.00 L 793.00,1040.50 L 792.50,1040.00 L 792.50,1039.00 L 792.50,1038.00 L 792.50,1037.00 L 792.00,1036.50 L 791.50,1036.00 L 791.50,1035.00 L 791.50,1034.00 L 791.50,1033.00 L 791.00,1032.50 L 790.50,1032.00 L 790.50,1031.00 L 790.50,1030.00 L 790.00,1029.50 L 789.50,1029.00 L 789.50,1028.00 L 789.50,1027.00 L 789.50,1026.00 L 789.50,1025.00 L 789.00,1024.50 L 788.50,1024.00 L 788.50,1023.00 L 788.50,1022.00 L 788.50,1021.00 L 788.00,1020.50 L 787.50,1020.00 L 787.50,1019.00 L 787.50,1018.00 L 787.50,1017.00 L 787.00,1016.50 L 786.50,1016.00 L 786.50,1015.00 L 786.50,1014.00 L 786.50,1013.00 L 786.50,1012.00 L 786.00,1011.50 L 785.50,1011.00 L 785.50,1010.00 L 785.50,1009.00 L 785.50,1008.00 L 785.00,1007.50 L 784.50,1007.00 L 784.50,1006.00 L 784.50,1005.00 L 784.50,1004.00 L 784.50,1003.00 L 784.00,1002.50 L 783.50,1002.00 L 783.50,1001.00 L 783.50,1000.00 L 783.00,999.50 L 782.50,999.00 L 782.50,998.00 L 782.50,997.00 L 782.50,996.00 L 782.50,995.00 L 782.00,994.50 L 781.50,994.00 L 781.50,993.00 L 781.50,992.00 L 781.00,991.50 L 780.50,991.00 L 780.50,990.00 L 780.50,989.00 L 780.50,988.00 L 780.50,987.00 L 780.00,986.50 L 779.50,986.00 L 779.50,985.00 L 779.50,984.00 L 779.50,983.00 L 779.00,982.50 L 778.50,982.00 L 778.50,981.00 L 778.50,980.00 L 778.50,979.00 L 778.00,978.50 L 777.50,978.00 L 777.50,977.00 L 777.50,976.00 L 777.50,975.00 L 777.00,974.50 L 776.50,974.00 L 776.50,973.00 L 776.50,972.00 L 776.50,971.00 L 776.50,970.00 L 776.50,969.00 L 776.00,968.50 L 775.50,968.00 L 775.50,967.00 L 775.50,966.00 L 775.00,965.50 L 774.50,965.00 L 774.50,964.00 L 774.50,963.00 L 774.50,962.00 L 774.50,961.00 L 774.50,960.00 L 774.50,959.00 L 775.00,958.50 L 775.50,958.00 L 775.50,957.00 L 776.00,956.50 L 776.50,956.00 L 776.50,955.00 L 776.50,954.00 L 777.00,953.50 L 777.50,953.00 L 778.00,952.50 L 778.50,952.00 L 778.50,951.00 L 779.00,950.50 L 779.50,950.00 L 780.00,949.50 L 780.50,949.00 L 780.50,948.00 L 781.00,947.50 L 781.50,947.00 L 781.50,946.00 L 782.00,945.50 L 782.50,945.00 L 782.50,944.00 L 782.50,943.00 L 782.50,942.00 L 782.00,941.50 L 781.50,941.00 L 781.50,940.00 L 781.50,939.00 L 781.50,938.00 L 781.00,937.50 L 780.50,937.00 L 780.50,936.00 L 780.50,935.00 L 780.50,934.00 L 780.50,933.00 L 780.50,932.00 L 780.00,931.50 L 779.50,931.00 L 779.50,930.00 L 779.50,929.00 L 779.50,928.00 L 779.50,927.00 L 779.50,926.00 L 779.50,925.00 L 779.00,924.50 L 778.50,924.00 L 778.50,923.00 L 778.50,922.00 L 778.50,921.00 L 778.50,920.00 L 778.50,919.00 L 779.00,918.50 L 779.50,918.00 L 779.50,917.00 L 779.50,916.00 L 779.50,915.00 L 779.50,914.00 L 779.50,913.00 L 779.50,912.00 L 779.50,911.00 L 780.00,910.50 L 780.50,910.00 L 780.50,909.00 L 780.50,908.00 L 780.50,907.00 L 780.50,906.00 L 780.50,905.00 L 780.50,904.00 L 781.00,903.50 L 781.50,903.00 L 781.50,902.00 L 781.50,901.00 L 781.50,900.00 L 782.00,899.50 L 782.50,899.00 L 782.50,898.00 L 782.50,897.00 L 782.50,896.00 L 783.00,895.50 L 783.50,895.00 L 783.50,894.00 L 783.50,893.00 L 784.00,892.50 L 784.50,892.00 L 784.50,891.00 L 784.50,890.00 L 785.00,889.50 L 785.50,889.00 L 785.50,888.00 L 785.50,887.00 L 786.00,886.50 L 786.50,886.00 L 786.50,885.00 L 786.50,884.00 L 787.00,883.50 L 787.50,883.00 L 787.50,882.00 L 787.50,881.00 L 788.00,880.50 L 788.50,880.00 L 788.50,879.00 L 788.50,878.00 L 789.00,877.50 L 789.50,877.00 L 789.50,876.00 L 789.50,875.00 L 790.00,874.50 L 790.50,874.00 L 790.50,873.00 L 791.00,872.50 L 791.50,872.00 L 791.50,871.00 L 791.50,870.00 L 792.00,869.50 L 792.50,869.00 L 792.50,868.00 L 792.50,867.00 L 793.00,866.50 L 793.50,866.00 L 793.50,865.00 L 793.50,864.00 L 794.00,863.50 L 794.50,863.00 L 794.50,862.00 L 795.00,861.50 L 795.50,861.00 L 795.50,860.00 L 796.00,859.50 L 796.50,859.00 L 796.50,858.00 L 796.50,857.00 L 797.00,856.50 L 797.50,856.00 L 797.50,855.00 L 797.50,854.00 L 798.00,853.50 L 798.50,853.00 L 798.50,852.00 L 799.00,851.50 L 799.50,851.00 L 799.50,850.00 L 799.50,849.00 L 800.00,848.50 L 800.50,848.00 L 800.50,847.00 L 801.00,846.50 L 801.50,846.00 L 801.50,845.00 L 801.50,844.00 L 802.00,843.50 L 802.50,843.00 L 802.50,842.00 L 803.00,841.50 L 803.50,841.00 L 803.50,840.00 L 803.50,839.00 L 803.50,838.00 L 804.00,837.50 L 804.50,837.00 L 805.00,836.50 L 805.50,836.00 L 805.50,835.00 L 805.50,834.00 L 805.50,833.00 L 806.00,832.50 L 806.50,832.00 L 807.00,831.50 L 807.50,831.00 L 807.50,830.00 L 807.50,829.00 L 807.50,828.00 L 808.00,827.50 L 808.50,827.00 L 808.50,826.00 L 809.00,825.50 L 809.50,825.00 L 809.50,824.00 L 809.50,823.00 L 810.00,822.50 L 810.50,822.00 L 810.50,821.00 L 810.50,820.00 L 811.00,819.50 L 811.50,819.00 L 811.50,818.00 L 811.50,817.00 L 812.00,816.50 L 812.50,816.00 L 812.50,815.00 L 813.00,814.50 L 813.50,814.00 L 813.50,813.00 L 813.50,812.00 L 813.50,811.00 L 814.00,810.50 L 814.50,810.00 L 814.50,809.00 L 815.00,808.50 L 815.50,808.00 L 815.50,807.00 L 815.50,806.00 L 815.50,805.00 L 816.00,804.50 L 816.50,804.00 L 816.50,803.00 L 816.50,802.00 L 816.00,801.50 L 815.00,801.50 L 814.50,802.00 L 814.00,802.50 L 813.50,803.00 L 813.00,803.50 L 812.50,804.00 L 812.00,804.50 L 811.50,805.00 L 811.00,805.50 L 810.50,806.00 L 810.00,806.50 L 809.50,807.00 L 809.00,807.50 L 808.50,808.00 L 808.00,808.50 L 807.50,809.00 L 807.00,809.50 L 806.50,810.00 L 806.00,810.50 L 805.50,811.00 L 805.00,811.50 L 804.50,812.00 L 804.50,813.00 L 804.00,813.50 L 803.00,813.50 L 802.50,814.00 L 802.00,814.50 L 801.50,815.00 L 801.00,815.50 L 800.50,816.00 L 800.00,816.50 L 799.50,817.00 L 799.00,817.50 L 798.50,818.00 L 798.00,818.50 L 797.50,819.00 L 797.50,820.00 L 797.00,820.50 L 796.50,821.00 L 796.00,821.50 L 795.50,822.00 L 795.00,822.50 L 794.50,823.00 L 794.00,823.50 L 793.50,824.00 L 793.00,824.50 L 792.50,825.00 L 792.00,825.50 L 791.50,826.00 L 791.00,826.50 L 790.50,827.00 L 790.00,827.50 L 789.50,828.00 L 789.00,828.50 L 788.50,829.00 L 788.00,829.50 L 787.50,830.00 L 787.00,830.50 L 786.50,831.00 L 786.00,831.50 L 785.50,832.00 L 785.50,833.00 L 785.00,833.50 L 784.50,834.00 L 784.00,834.50 L 783.50,835.00 L 783.00,835.50 L 782.50,836.00 L 782.00,836.50 L 781.50,837.00 L 781.00,837.50 L 780.50,838.00 L 780.00,838.50 L 779.50,839.00 L 779.00,839.50 L 778.50,840.00 L 778.50,841.00 L 778.00,841.50 L 777.50,842.00 L 777.00,842.50 L 776.50,843.00 L 776.00,843.50 L 775.50,844.00 L 775.00,844.50 L 774.50,845.00 L 774.00,845.50 L 773.50,846.00 L 773.00,846.50 L 772.50,847.00 L 772.00,847.50 L 771.50,848.00 L 771.50,849.00 L 771.00,849.50 L 770.50,850.00 L 770.00,850.50 L 769.50,851.00 L 769.00,851.50 L 768.50,852.00 L 768.00,852.50 L 767.50,853.00 L 767.50,854.00 L 767.00,854.50 L 766.50,855.00 L 766.00,855.50 L 765.50,856.00 L 765.50,857.00 L 765.00,857.50 L 764.50,858.00 L 764.00,858.50 L 763.50,859.00 L 763.00,859.50 L 762.50,860.00 L 762.50,861.00 L 762.00,861.50 L 761.50,862.00 L 761.00,862.50 L 760.50,863.00 L 760.00,863.50 L 759.50,864.00 L 759.50,865.00 L 759.00,865.50 L 758.50,866.00 L 758.50,867.00 L 758.00,867.50 L 757.50,868.00 L 757.00,868.50 L 756.50,869.00 L 756.50,870.00 L 756.00,870.50 L 755.50,871.00 L 755.50,872.00 L 755.00,872.50 L 754.50,873.00 L 754.00,873.50 L 753.50,874.00 L 753.50,875.00 L 753.00,875.50 L 752.50,876.00 L 752.50,877.00 L 752.00,877.50 L 751.50,878.00 L 751.50,879.00 L 751.00,879.50 L 750.50,880.00 L 750.50,881.00 L 750.00,881.50 L 749.50,882.00 L 749.50,883.00 L 749.00,883.50 L 748.50,884.00 L 748.50,885.00 L 748.00,885.50 L 747.50,886.00 L 747.50,887.00 L 747.00,887.50 L 746.50,888.00 L 746.50,889.00 L 746.00,889.50 L 745.50,890.00 L 745.50,891.00 L 745.50,892.00 L 745.00,892.50 L 744.50,893.00 L 744.50,894.00 L 744.00,894.50 L 743.50,895.00 L 743.50,896.00 L 743.50,897.00 L 743.00,897.50 L 742.50,898.00 L 742.50,899.00 L 742.00,899.50 L 741.50,900.00 L 741.50,901.00 L 741.50,902.00 L 741.00,902.50 L 740.50,903.00 L 740.50,904.00 L 740.00,904.50 L 739.50,905.00 L 739.50,906.00 L 739.00,906.50 L 738.50,907.00 L 738.50,908.00 L 738.50,909.00 L 738.00,909.50 L 737.50,910.00 L 737.50,911.00 L 738.00,911.50 L 738.50,912.00 L 738.50,913.00 L 739.00,913.50 L 739.50,914.00 L 739.50,915.00 L 740.00,915.50 L 740.50,916.00 L 741.00,916.50 L 741.50,917.00 L 741.50,918.00 L 742.00,918.50 L 742.50,919.00 L 742.50,920.00 L 743.00,920.50 L 743.50,921.00 L 743.50,922.00 L 743.50,923.00 L 744.00,923.50 L 744.50,924.00 L 744.50,925.00 L 745.00,925.50 L 745.50,926.00 L 745.50,927.00 L 745.50,928.00 L 745.50,929.00 L 745.50,930.00 L 745.50,931.00 L 745.50,932.00 L 745.50,933.00 L 745.00,933.50 L 744.50,934.00 L 744.50,935.00 L 744.00,935.50 L 743.50,936.00 L 743.50,937.00 L 743.50,938.00 L 743.00,938.50 L 742.50,939.00 L 742.50,940.00 L 742.00,940.50 L 741.50,941.00 L 741.00,941.50 L 740.50,942.00 L 740.00,942.50 L 739.50,943.00 L 739.00,943.50 L 738.50,944.00 L 738.00,944.50 L 737.50,945.00 L 737.00,945.50 L 736.50,946.00 L 736.00,946.50 L 735.50,947.00 L 735.00,947.50 L 734.00,947.50 L 733.50,948.00 L 733.00,948.50 L 732.50,949.00 L 732.00,949.50 L 731.00,949.50 L 730.50,950.00 L 730.00,950.50 L 729.00,950.50 L 728.50,951.00 L 728.00,951.50 L 727.50,952.00 L 727.00,952.50 L 726.00,952.50 L 725.50,953.00 L 725.00,953.50 L 724.00,953.50 L 723.50,954.00 L 723.00,954.50 L 722.00,954.50 L 721.50,955.00 L 721.00,955.50 L 720.00,955.50 L 719.50,956.00 L 719.00,956.50 L 718.50,957.00 L 718.00,957.50 L 717.00,957.50 L 716.50,958.00 L 716.00,958.50 L 715.00,958.50 L 714.50,959.00 L 714.00,959.50 L 713.50,960.00 L 713.00,960.50 L 712.00,960.50 L 711.50,961.00 L 711.00,961.50 L 710.00,961.50 L 709.50,962.00 L 709.00,962.50 L 708.00,962.50 L 707.50,963.00 L 707.00,963.50 L 706.50,964.00 L 706.00,964.50 L 705.00,964.50 L 704.50,965.00 L 704.00,965.50 L 703.00,965.50 L 702.50,966.00 L 702.00,966.50 L 701.00,966.50 L 700.50,967.00 L 700.00,967.50 L 699.00,967.50 L 698.50,968.00 L 698.00,968.50 L 697.50,969.00 L 697.00,969.50 L 696.00,969.50 L 695.50,970.00 L 695.00,970.50 L 694.00,970.50 L 693.50,971.00 L 693.00,971.50 L 692.50,972.00 L 692.00,972.50 L 691.00,972.50 L 690.50,973.00 L 690.00,973.50 L 689.00,973.50 L 688.50,974.00 L 688.00,974.50 L 687.00,974.50 L 686.50,975.00 L 686.00,975.50 L 685.50,976.00 L 685.00,976.50 L 684.00,976.50 L 683.50,977.00 L 683.00,977.50 L 682.00,977.50 L 681.50,978.00 L 681.00,978.50 L 680.50,979.00 L 680.00,979.50 L 679.00,979.50 L 678.50,980.00 L 678.00,980.50 L 677.00,980.50 L 676.50,981.00 L 676.00,981.50 L 675.00,981.50 L 674.50,982.00 L 674.00,982.50 L 673.50,983.00 L 673.00,983.50 L 672.00,983.50 L 671.50,984.00 L 671.00,984.50 L 670.00,984.50 L 669.50,985.00 L 669.00,985.50 L 668.00,985.50 L 667.50,986.00 L 667.00,986.50 L 666.50,987.00 L 666.00,987.50 L 665.00,987.50 L 664.50,988.00 L 664.00,988.50 L 663.50,989.00 L 663.00,989.50 L 662.00,989.50 L 661.00,989.50 L 660.50,990.00 L 660.00,990.50 L 659.50,991.00 L 659.00,991.50 L 658.00,991.50 L 657.00,991.50 L 656.50,992.00 L 656.00,992.50 L 655.50,993.00 L 655.00,993.50 L 654.00,993.50 L 653.50,994.00 L 653.00,994.50 L 652.50,995.00 L 652.00,995.50 L 651.00,995.50 L 650.50,996.00 L 650.00,996.50 L 649.00,996.50 L 648.50,997.00 L 648.00,997.50 L 647.00,997.50 L 646.50,998.00 L 646.00,998.50 L 645.50,999.00 L 645.00,999.50 L 644.00,999.50 L 643.00,999.50 L 642.50,1000.00 L 642.00,1000.50 L 641.50,1001.00 L 641.00,1001.50 L 640.00,1001.50 L 639.50,1002.00 L 639.00,1002.50 L 638.00,1002.50 L 637.50,1003.00 L 637.00,1003.50 L 636.50,1004.00 L 636.00,1004.50 L 635.00,1004.50 L 634.50,1005.00 L 634.00,1005.50 L 633.50,1006.00 L 633.00,1006.50 L 632.00,1006.50 L 631.50,1007.00 L 631.00,1007.50 L 630.50,1008.00 L 630.00,1008.50 L 629.00,1008.50 L 628.50,1009.00 L 628.00,1009.50 L 627.00,1009.50 L 626.50,1010.00 L 626.00,1010.50 L 625.50,1011.00 L 625.00,1011.50 L 624.00,1011.50 L 623.50,1012.00 L 623.00,1012.50 L 622.00,1012.50 L 621.50,1013.00 L 621.00,1013.50 L 620.00,1013.50 L 619.50,1014.00 L 619.00,1014.50 L 618.00,1014.50 L 617.50,1015.00 L 617.00,1015.50 L 616.00,1015.50 L 615.50,1016.00 L 615.00,1016.50 L 614.50,1017.00 L 614.00,1017.50 L 613.00,1017.50 L 612.50,1018.00 L 612.00,1018.50 L 611.00,1018.50 L 610.50,1019.00 L 610.00,1019.50 L 609.50,1020.00 L 609.00,1020.50 L 608.00,1020.50 L 607.50,1021.00 L 607.00,1021.50 L 606.00,1021.50 L 605.50,1022.00 L 605.00,1022.50 L 604.00,1022.50 L 603.50,1023.00 L 603.00,1023.50 L 602.50,1024.00 L 602.00,1024.50 L 601.00,1024.50 L 600.50,1025.00 L 600.00,1025.50 L 599.00,1025.50 L 598.50,1026.00 L 598.00,1026.50 L 597.00,1026.50 L 596.50,1027.00 L 596.00,1027.50 L 595.50,1028.00 L 595.00,1028.50 L 594.00,1028.50 L 593.50,1029.00 L 593.00,1029.50 L 592.00,1029.50 L 591.50,1030.00 L 591.00,1030.50 L 590.50,1031.00 L 590.00,1031.50 L 589.50,1032.00 L 589.00,1032.50 L 588.00,1032.50 L 587.50,1033.00 L 587.00,1033.50 L 586.00,1033.50 L 585.50,1034.00 L 585.00,1034.50 L 584.00,1034.50 L 583.50,1034.00 L 583.50,1033.00 L 583.50,1032.00 L 583.50,1031.00 L 584.00,1030.50 L 584.50,1030.00 L 584.50,1029.00 L 585.00,1028.50 L 585.50,1028.00 L 585.50,1027.00 L 586.00,1026.50 L 586.50,1026.00 L 587.00,1025.50 L 587.50,1025.00 L 587.50,1024.00 L 588.00,1023.50 L 588.50,1023.00 L 588.50,1022.00 L 589.00,1021.50 L 589.50,1021.00 L 590.00,1020.50 L 590.50,1020.00 L 590.50,1019.00 L 591.00,1018.50 L 591.50,1018.00 L 591.50,1017.00 L 592.00,1016.50 L 592.50,1016.00 L 593.00,1015.50 L 593.50,1015.00 L 593.50,1014.00 L 594.00,1013.50 L 594.50,1013.00 L 594.50,1012.00 L 595.00,1011.50 L 595.50,1011.00 L 595.50,1010.00 L 596.00,1009.50 L 596.50,1009.00 L 597.00,1008.50 L 597.50,1008.00 L 597.50,1007.00 L 598.00,1006.50 L 598.50,1006.00 L 598.50,1005.00 L 599.00,1004.50 L 599.50,1004.00 L 599.50,1003.00 L 600.00,1002.50 L 600.50,1002.00 L 601.00,1001.50 L 601.50,1001.00 L 601.50,1000.00 L 602.00,999.50 L 602.50,999.00 L 602.50,998.00 L 603.00,997.50 L 603.50,997.00 L 603.50,996.00 L 604.00,995.50 L 604.50,995.00 L 605.00,994.50 L 605.50,994.00 L 605.50,993.00 L 605.50,992.00 L 606.00,991.50 L 606.50,991.00 L 607.00,990.50 L 607.50,990.00 L 607.50,989.00 L 608.00,988.50 L 608.50,988.00 L 608.50,987.00 L 609.00,986.50 L 609.50,986.00 L 610.00,985.50 L 610.50,985.00 L 610.50,984.00 L 611.00,983.50 L 611.50,983.00 L 611.50,982.00 L 612.00,981.50 L 612.50,981.00 L 613.00,980.50 L 613.50,980.00 L 613.50,979.00 L 614.00,978.50 L 614.50,978.00 L 614.50,977.00 L 615.00,976.50 L 615.50,976.00 L 616.00,975.50 L 616.50,975.00 L 616.50,974.00 L 617.00,973.50 L 617.50,973.00 L 617.50,972.00 L 618.00,971.50 L 618.50,971.00 L 618.50,970.00 L 619.00,969.50 L 619.50,969.00 L 619.50,968.00 L 620.00,967.50 L 620.50,967.00 L 621.00,966.50 L 621.50,966.00 L 621.50,965.00 L 622.00,964.50 L 622.50,964.00 L 622.50,963.00 L 623.00,962.50 L 623.50,962.00 L 624.00,961.50 L 624.50,961.00 L 624.50,960.00 L 625.00,959.50 L 625.50,959.00 L 625.50,958.00 L 626.00,957.50 L 626.50,957.00 L 626.50,956.00 L 627.00,955.50 L 627.50,955.00 L 627.50,954.00 L 628.00,953.50 L 628.50,953.00 L 628.50,952.00 L 629.00,951.50 L 629.50,951.00 L 629.50,950.00 L 630.00,949.50 L 630.50,949.00 L 631.00,948.50 L 631.50,948.00 L 631.50,947.00 L 632.00,946.50 L 632.50,946.00 L 632.50,945.00 L 633.00,944.50 L 633.50,944.00 L 634.00,943.50 L 634.50,943.00 L 634.50,942.00 L 635.00,941.50 L 635.50,941.00 L 635.50,940.00 L 636.00,939.50 L 636.50,939.00 L 636.50,938.00 L 637.00,937.50 L 637.50,937.00 L 637.50,936.00 L 638.00,935.50 L 638.50,935.00 L 638.50,934.00 L 639.00,933.50 L 639.50,933.00 L 639.50,932.00 L 640.00,931.50 L 640.50,931.00 L 641.00,930.50 L 641.50,930.00 L 641.50,929.00 L 642.00,928.50 L 642.50,928.00 L 643.00,927.50 L 643.50,927.00 L 643.50,926.00 L 644.00,925.50 L 644.50,925.00 L 644.50,924.00 L 645.00,923.50 L 645.50,923.00 L 645.50,922.00 L 646.00,921.50 L 646.50,921.00 L 646.50,920.00 L 647.00,919.50 L 647.50,919.00 L 647.50,918.00 L 648.00,917.50 L 648.50,917.00 L 649.00,916.50 L 649.50,916.00 L 649.50,915.00 L 650.00,914.50 L 650.50,914.00 L 650.50,913.00 L 651.00,912.50 L 651.50,912.00 L 651.50,911.00 L 652.00,910.50 L 652.50,910.00 L 653.00,909.50 L 653.50,909.00 L 653.50,908.00 L 653.50,907.00 L 654.00,906.50 L 654.50,906.00 L 655.00,905.50 L 655.50,905.00 L 655.50,904.00 L 656.00,903.50 L 656.50,903.00 L 656.50,902.00 L 657.00,901.50 L 657.50,901.00 L 657.50,900.00 L 658.00,899.50 L 658.50,899.00 L 659.00,898.50 L 659.50,898.00 L 659.50,897.00 L 660.00,896.50 L 660.50,896.00 L 660.50,895.00 L 661.00,894.50 L 661.50,894.00 L 661.50,893.00 L 662.00,892.50 L 662.50,892.00 L 662.50,891.00 L 663.00,890.50 L 663.50,890.00 L 663.50,889.00 L 664.00,888.50 L 664.50,888.00 L 665.00,887.50 L 665.50,887.00 L 665.50,886.00 L 666.00,885.50 L 666.50,885.00 L 666.50,884.00 L 667.00,883.50 L 667.50,883.00 L 667.50,882.00 L 668.00,881.50 L 668.50,881.00 L 668.50,880.00 L 669.00,879.50 L 669.50,879.00 L 669.50,878.00 L 670.00,877.50 L 670.50,877.00 L 670.50,876.00 L 671.00,875.50 L 671.50,875.00 L 671.50,874.00 L 672.00,873.50 L 672.50,873.00 L 672.50,872.00 L 673.00,871.50 L 673.50,871.00 L 673.50,870.00 L 674.00,869.50 L 674.50,869.00 L 675.00,868.50 L 675.50,868.00 L 675.50,867.00 L 676.00,866.50 L 676.50,866.00 L 676.50,865.00 L 677.00,864.50 L 677.50,864.00 L 677.50,863.00 L 678.00,862.50 L 678.50,862.00 L 678.50,861.00 L 679.00,860.50 L 679.50,860.00 L 680.00,859.50 L 680.50,859.00 L 680.50,858.00 L 681.00,857.50 L 681.50,857.00 L 681.50,856.00 L 682.00,855.50 L 682.50,855.00 L 682.50,854.00 L 683.00,853.50 L 683.50,853.00 L 684.00,852.50 L 684.50,852.00 L 684.50,851.00 L 684.50,850.00 L 684.00,849.50 L 683.00,849.50 L 682.00,849.50 L 681.50,849.00 L 681.00,848.50 L 680.00,848.50 L 679.00,848.50 L 678.00,848.50 L 677.50,848.00 L 677.00,847.50 L 676.00,847.50 L 675.00,847.50 L 674.00,847.50 L 673.00,847.50 L 672.00,847.50 L 671.50,847.00 L 671.00,846.50 L 670.00,846.50 L 669.00,846.50 L 668.00,846.50 L 667.50,846.00 L 667.00,845.50 L 666.00,845.50 L 665.00,845.50 L 664.00,845.50 L 663.00,845.50 L 662.50,845.00 L 662.00,844.50 L 661.00,844.50 L 660.50,844.00 L 660.00,843.50 L 659.00,843.50 L 658.00,843.50 L 657.00,843.50 L 656.00,843.50 L 655.50,843.00 L 655.00,842.50 L 654.00,842.50 L 653.00,842.50 L 652.50,842.00 L 652.00,841.50 L 651.00,841.50 L 650.00,841.50 L 649.00,841.50 L 648.00,841.50 L 647.50,841.00 L 647.00,840.50 L 646.00,840.50 L 645.00,840.50 L 644.00,840.50 L 643.50,840.00 L 643.00,839.50 L 642.00,839.50 L 641.00,839.50 L 640.00,839.50 L 639.50,839.00 L 639.00,838.50 L 638.00,838.50 L 637.00,838.50 L 636.00,838.50 L 635.50,838.00 L 635.00,837.50 L 634.00,837.50 L 633.00,837.50 L 632.00,837.50 L 631.50,837.00 L 631.00,836.50 L 630.00,836.50 L 629.00,836.50 L 628.00,836.50 L 627.50,836.00 L 627.00,835.50 L 626.00,835.50 L 625.00,835.50 L 624.00,835.50 L 623.00,835.50 L 622.50,835.00 L 622.00,834.50 L 621.00,834.50 L 620.00,834.50 L 619.00,834.50 L 618.50,834.00 L 618.00,833.50 L 617.00,833.50 L 616.00,833.50 L 615.00,833.50 L 614.00,833.50 L 613.50,833.00 L 613.00,832.50 L 612.00,832.50 L 611.00,832.50 L 610.50,832.00 L 610.00,831.50 L 609.00,831.50 L 608.00,831.50 L 607.00,831.50 L 606.00,831.50 L 605.50,831.00 L 605.00,830.50 L 604.00,830.50 L 603.00,830.50 L 602.00,830.50 L 601.50,830.00 L 601.00,829.50 L 600.00,829.50 L 599.00,829.50 L 598.00,829.50 L 597.50,829.00 L 597.00,828.50 L 596.00,828.50 L 595.00,828.50 L 594.00,828.50 L 593.50,828.00 L 593.00,827.50 L 592.00,827.50 L 591.00,827.50 L 590.00,827.50 L 589.00,827.50 L 588.50,827.00 L 588.00,826.50 L 587.00,826.50 L 586.00,826.50 L 585.00,826.50 L 584.50,826.00 L 584.00,825.50 L 583.00,825.50 L 582.00,825.50 L 581.00,825.50 L 580.00,825.50 L 579.50,825.00 L 579.00,824.50 L 578.00,824.50 L 577.00,824.50 L 576.50,824.00 L 576.00,823.50 L 575.00,823.50 L 574.00,823.50 L 573.00,823.50 L 572.00,823.50 L 571.50,823.00 L 571.00,822.50 L 570.00,822.50 L 569.00,822.50 L 568.00,822.50 L 567.50,822.00 L 567.00,821.50 L 566.00,821.50 L 565.00,821.50 L 564.00,821.50 L 563.50,821.00 L 563.00,820.50 L 562.00,820.50 L 561.00,820.50 L 560.00,820.50 L 559.50,820.00 L 559.00,819.50 L 558.00,819.50 L 557.00,819.50 L 556.00,819.50 L 555.00,819.50 L 554.50,819.00 L 554.00,818.50 L 553.00,818.50 L 552.00,818.50 L 551.00,818.50 L 550.50,818.00 L 550.00,817.50 L 549.00,817.50 L 548.00,817.50 L 547.00,817.50 L 546.50,817.00 L 546.00,816.50 L 545.00,816.50 L 544.00,816.50 L 543.00,816.50 L 542.50,816.00 L 542.00,815.50 L 541.00,815.50 L 540.00,815.50 L 539.00,815.50 L 538.50,815.00 L 538.00,814.50 L 537.00,814.50 L 536.00,814.50 L 535.00,814.50 L 534.00,814.50 L 533.50,814.00 L 533.00,813.50 L 532.00,813.50 L 531.00,813.50 L 530.00,813.50 L 529.50,813.00 L 529.00,812.50 L 528.00,812.50 L 527.00,812.50 L 526.00,812.50 L 525.00,812.50 L 524.50,812.00 L 524.00,811.50 L 523.00,811.50 L 522.00,811.50 L 521.50,811.00 L 521.00,810.50 L 520.00,810.50 L 519.00,810.50 L 518.00,810.50 L 517.00,810.50 L 516.50,810.00 L 516.00,809.50 L 515.00,809.50 L 514.00,809.50 L 513.00,809.50 L 512.50,809.00 L 512.00,808.50 L 511.00,808.50 L 510.00,808.50 L 509.00,808.50 L 508.50,808.00 L 508.00,807.50 L 507.00,807.50 L 506.00,807.50 L 505.50,807.00 L 505.00,806.50 L 504.00,806.50 L 503.00,806.50 L 502.00,806.50 L 501.00,806.50 L 500.50,806.00 L 500.00,805.50 L 499.00,805.50 L 498.00,805.50 L 497.00,805.50 L 496.50,805.00 L 496.00,804.50 L 495.00,804.50 L 494.00,804.50 L 493.00,804.50 L 492.00,804.50 L 491.50,804.00 L 491.00,803.50 L 490.00,803.50 L 489.00,803.50 L 488.50,803.00 L 488.00,802.50 L 487.00,802.50 L 486.00,802.50 L 485.00,802.50 L 484.00,802.50 L 483.50,802.00 L 483.00,801.50 L 482.00,801.50 L 481.00,801.50 L 480.00,801.50 L 479.50,801.00 L 479.00,800.50 L 478.00,800.50 L 477.50,800.00 L 477.50,799.00 L 477.50,798.00 L 478.00,797.50 L 479.00,797.50 L 479.50,797.00 L 480.00,796.50 L 481.00,796.50 L 482.00,796.50 L 483.00,796.50 L 484.00,796.50 L 484.50,796.00 L 485.00,795.50 L 486.00,795.50 L 487.00,795.50 L 487.50,795.00 L 488.00,794.50 L 489.00,794.50 L 490.00,794.50 L 491.00,794.50 L 491.50,794.00 L 492.00,793.50 L 493.00,793.50 L 494.00,793.50 L 495.00,793.50 L 496.00,793.50 L 496.50,793.00 L 497.00,792.50 L 498.00,792.50 L 499.00,792.50 L 500.00,792.50 L 500.50,792.00 L 501.00,791.50 L 502.00,791.50 L 503.00,791.50 L 503.50,791.00 L 504.00,790.50 L 505.00,790.50 L 506.00,790.50 L 507.00,790.50 L 508.00,790.50 L 508.50,790.00 L 509.00,789.50 L 510.00,789.50 L 511.00,789.50 L 512.00,789.50 L 513.00,789.50 L 513.50,789.00 L 514.00,788.50 L 515.00,788.50 L 516.00,788.50 L 517.00,788.50 L 517.50,788.00 L 518.00,787.50 L 519.00,787.50 L 520.00,787.50 L 521.00,787.50 L 521.50,787.00 L 522.00,786.50 L 523.00,786.50 L 524.00,786.50 L 525.00,786.50 L 526.00,786.50 L 526.50,786.00 L 527.00,785.50 L 528.00,785.50 L 529.00,785.50 L 530.00,785.50 L 530.50,785.00 L 531.00,784.50 L 532.00,784.50 L 533.00,784.50 L 534.00,784.50 L 535.00,784.50 L 535.50,784.00 L 536.00,783.50 L 537.00,783.50 L 538.00,783.50 L 539.00,783.50 L 539.50,783.00 L 540.00,782.50 L 541.00,782.50 L 542.00,782.50 L 543.00,782.50 L 543.50,782.00 L 544.00,781.50 L 545.00,781.50 L 546.00,781.50 L 547.00,781.50 L 548.00,781.50 L 548.50,781.00 L 549.00,780.50 L 550.00,780.50 L 551.00,780.50 L 552.00,780.50 L 552.50,780.00 L 553.00,779.50 L 554.00,779.50 L 555.00,779.50 L 556.00,779.50 L 556.50,779.00 L 557.00,778.50 L 558.00,778.50 L 559.00,778.50 L 560.00,778.50 L 561.00,778.50 L 561.50,778.00 L 562.00,777.50 L 563.00,777.50 L 564.00,777.50 L 565.00,777.50 L 565.50,777.00 L 566.00,776.50 L 567.00,776.50 L 568.00,776.50 L 569.00,776.50 L 570.00,776.50 L 570.50,776.00 L 571.00,775.50 L 572.00,775.50 L 572.50,775.00 L 573.00,774.50 L 574.00,774.50 L 575.00,774.50 L 576.00,774.50 L 577.00,774.50 L 577.50,774.00 L 578.00,773.50 L 579.00,773.50 L 580.00,773.50 L 581.00,773.50 L 581.50,773.00 L 582.00,772.50 L 583.00,772.50 L 584.00,772.50 L 585.00,772.50 L 586.00,772.50 L 586.50,772.00 L 587.00,771.50 L 588.00,771.50 L 589.00,771.50 L 590.00,771.50 L 590.50,771.00 L 591.00,770.50 L 592.00,770.50 L 593.00,770.50 L 594.00,770.50 L 594.50,770.00 L 595.00,769.50 L 596.00,769.50 L 597.00,769.50 L 598.00,769.50 L 598.50,769.00 L 599.00,768.50 L 600.00,768.50 L 601.00,768.50 L 602.00,768.50 L 603.00,768.50 L 603.50,768.00 L 604.00,767.50 L 605.00,767.50 L 606.00,767.50 L 607.00,767.50 L 607.50,767.00 L 608.00,766.50 L 609.00,766.50 L 610.00,766.50 L 611.00,766.50 L 612.00,766.50 L 612.50,766.00 L 613.00,765.50 L 614.00,765.50 L 615.00,765.50 L 616.00,765.50 L 616.50,765.00 L 617.00,764.50 L 618.00,764.50 L 619.00,764.50 L 620.00,764.50 L 620.50,764.00 L 621.00,763.50 L 622.00,763.50 L 623.00,763.50 L 623.50,763.00 L 624.00,762.50 L 625.00,762.50 L 626.00,762.50 L 627.00,762.50 L 628.00,762.50 L 629.00,762.50 L 629.50,762.00 L 630.00,761.50 L 631.00,761.50 L 632.00,761.50 L 633.00,761.50 L 633.50,761.00 L 634.00,760.50 L 635.00,760.50 L 636.00,760.50 L 637.00,760.50 L 637.50,760.00 L 638.00,759.50 L 639.00,759.50 L 640.00,759.50 L 641.00,759.50 L 641.50,759.00 L 642.00,758.50 L 643.00,758.50 L 644.00,758.50 L 645.00,758.50 L 645.50,758.00 L 646.00,757.50 L 647.00,757.50 L 648.00,757.50 L 649.00,757.50 L 649.50,757.00 L 650.00,756.50 L 651.00,756.50 L 652.00,756.50 L 653.00,756.50 L 654.00,756.50 L 655.00,756.50 L 655.50,756.00 L 656.00,755.50 L 656.50,756.00 L 657.00,756.50 L 658.00,756.50 L 659.00,756.50 L 660.00,756.50 L 661.00,756.50 L 661.50,757.00 L 662.00,757.50 L 663.00,757.50 L 663.50,758.00 L 664.00,758.50 L 665.00,758.50 L 665.50,759.00 L 666.00,759.50 L 667.00,759.50 L 667.50,760.00 L 668.00,760.50 L 669.00,760.50 L 669.50,761.00 L 670.00,761.50 L 671.00,761.50 L 671.50,762.00 L 672.00,762.50 L 672.50,763.00 L 673.00,763.50 L 674.00,763.50 L 674.50,764.00 L 675.00,764.50 L 676.00,764.50 L 677.00,764.50 L 678.00,764.50 L 679.00,764.50 L 679.50,764.00 L 680.00,763.50 L 681.00,763.50 L 682.00,763.50 L 683.00,763.50 L 684.00,763.50 L 685.00,763.50 L 685.50,763.00 L 686.00,762.50 L 687.00,762.50 L 688.00,762.50 L 689.00,762.50 L 690.00,762.50 L 691.00,762.50 L 692.00,762.50 L 693.00,762.50 L 694.00,762.50 L 695.00,762.50 L 696.00,762.50 L 697.00,762.50 L 698.00,762.50 L 699.00,762.50 L 700.00,762.50 L 701.00,762.50 L 702.00,762.50 L 703.00,762.50 L 704.00,762.50 L 705.00,762.50 L 706.00,762.50 L 707.00,762.50 L 708.00,762.50 L 709.00,762.50 L 710.00,762.50 L 710.50,763.00 L 711.00,763.50 L 712.00,763.50 L 713.00,763.50 L 714.00,763.50 L 715.00,763.50 L 715.50,764.00 L 716.00,764.50 L 717.00,764.50 L 718.00,764.50 L 719.00,764.50 L 720.00,764.50 L 720.50,765.00 L 721.00,765.50 L 722.00,765.50 L 723.00,765.50 L 723.50,766.00 L 724.00,766.50 L 725.00,766.50 L 726.00,766.50 L 727.00,766.50 L 727.50,767.00 L 728.00,767.50 L 729.00,767.50 L 730.00,767.50 L 730.50,768.00 L 731.00,768.50 L 732.00,768.50 L 733.00,768.50 L 734.00,768.50 L 734.50,769.00 L 735.00,769.50 L 736.00,769.50 L 737.00,769.50 L 737.50,770.00 L 738.00,770.50 L 739.00,770.50 L 740.00,770.50 L 740.50,771.00 L 741.00,771.50 L 742.00,771.50 L 742.50,772.00 L 743.00,772.50 L 744.00,772.50 L 745.00,772.50 L 746.00,772.50 L 746.50,773.00 L 747.00,773.50 L 748.00,773.50 L 748.50,774.00 L 749.00,774.50 L 750.00,774.50 L 751.00,774.50 L 751.50,775.00 L 752.00,775.50 L 753.00,775.50 L 753.50,776.00 L 754.00,776.50 L 755.00,776.50 L 756.00,776.50 L 756.50,777.00 L 757.00,777.50 L 758.00,777.50 L 758.50,778.00 L 759.00,778.50 L 760.00,778.50 L 761.00,778.50 L 761.50,779.00 L 762.00,779.50 L 763.00,779.50 L 763.50,780.00 L 764.00,780.50 L 765.00,780.50 L 766.00,780.50 L 767.00,780.50 L 767.50,781.00 L 768.00,781.50 L 769.00,781.50 L 769.50,782.00 L 770.00,782.50 L 771.00,782.50 L 772.00,782.50 L 772.50,783.00 L 773.00,783.50 L 774.00,783.50 L 774.50,784.00 L 775.00,784.50 L 776.00,784.50 L 777.00,784.50 L 777.50,785.00 L 778.00,785.50 L 779.00,785.50 L 780.00,785.50 L 780.50,786.00 L 781.00,786.50 L 782.00,786.50 L 783.00,786.50 L 783.50,787.00 L 784.00,787.50 L 785.00,787.50 L 785.50,788.00 L 786.00,788.50 L 787.00,788.50 L 788.00,788.50 L 788.50,789.00 L 789.00,789.50 L 790.00,789.50 L 791.00,789.50 L 791.50,790.00 L 792.00,790.50 L 793.00,790.50 L 794.00,790.50 L 794.50,791.00 L 795.00,791.50 L 796.00,791.50 L 797.00,791.50 L 797.50,792.00 L 798.00,792.50 L 799.00,792.50 L 800.00,792.50 L 800.50,793.00 L 801.00,793.50 L 802.00,793.50 L 803.00,793.50 L 803.50,794.00 L 804.00,794.50 L 805.00,794.50 L 805.50,795.00 L 806.00,795.50 L 807.00,795.50 L 808.00,795.50 L 808.50,796.00 L 809.00,796.50 L 810.00,796.50 L 811.00,796.50 L 811.50,797.00 L 812.00,797.50 L 813.00,797.50 L 814.00,797.50 L 815.00,797.50 L 815.50,797.00 L 815.50,796.00 L 815.00,795.50 L 814.50,795.00 L 814.00,794.50 L 813.50,794.00 L 813.50,793.00 L 813.00,792.50 L 812.50,792.00 L 812.00,791.50 L 811.50,791.00 L 811.00,790.50 L 810.50,790.00 L 810.00,789.50 L 809.50,789.00 L 809.00,788.50 L 808.50,788.00 L 808.00,787.50 L 807.50,787.00 L 807.00,786.50 L 806.50,786.00 L 806.00,785.50 L 805.50,785.00 L 805.00,784.50 L 804.50,784.00 L 804.00,783.50 L 803.50,783.00 L 803.00,782.50 L 802.50,782.00 L 802.00,781.50 L 801.50,781.00 L 801.00,780.50 L 800.50,780.00 L 800.00,779.50 L 799.50,779.00 L 799.00,778.50 L 798.50,778.00 L 798.00,777.50 L 797.50,777.00 L 797.00,776.50 L 796.50,776.00 L 796.00,775.50 L 795.50,775.00 L 795.00,774.50 L 794.50,774.00 L 794.00,773.50 L 793.50,773.00 L 793.00,772.50 L 792.50,772.00 L 792.00,771.50 L 791.50,771.00 L 791.00,770.50 L 790.50,770.00 L 790.00,769.50 L 789.00,769.50 L 788.50,769.00 L 788.50,768.00 L 788.00,767.50 L 787.00,767.50 L 786.50,767.00 L 786.00,766.50 L 785.50,766.00 L 785.00,765.50 L 784.50,765.00 L 784.00,764.50 L 783.50,764.00 L 783.00,763.50 L 782.50,763.00 L 782.00,762.50 L 781.50,762.00 L 781.00,761.50 L 780.50,761.00 L 780.00,760.50 L 779.50,760.00 L 779.00,759.50 L 778.50,759.00 L 778.00,758.50 L 777.50,758.00 L 777.00,757.50 L 776.00,757.50 L 775.50,757.00 L 775.00,756.50 L 774.50,756.00 L 774.00,755.50 L 773.50,755.00 L 773.00,754.50 L 772.50,754.00 L 772.00,753.50 L 771.50,753.00 L 771.00,752.50 L 770.50,752.00 L 770.00,751.50 L 769.00,751.50 L 768.50,751.00 L 768.00,750.50 L 767.50,750.00 L 767.00,749.50 L 766.50,749.00 L 766.00,748.50 L 765.50,748.00 L 765.00,747.50 L 764.50,747.00 L 764.00,746.50 L 763.00,746.50 L 762.50,746.00 L 762.00,745.50 L 761.50,745.00 L 761.00,744.50 L 760.50,744.00 L 760.00,743.50 L 759.00,743.50 L 758.50,743.00 L 758.00,742.50 L 757.50,742.00 L 757.00,741.50 L 756.00,741.50 L 755.50,741.00 L 755.00,740.50 L 754.50,740.00 L 754.00,739.50 L 753.50,739.00 L 753.00,738.50 L 752.00,738.50 L 751.50,738.00 L 751.00,737.50 L 750.00,737.50 L 749.50,737.00 L 749.00,736.50 L 748.50,736.00 L 748.00,735.50 L 747.00,735.50 L 746.50,735.00 L 746.00,734.50 L 745.50,734.00 L 745.00,733.50 L 744.00,733.50 L 743.50,733.00 L 743.00,732.50 L 742.00,732.50 L 741.50,732.00 L 741.00,731.50 L 740.50,731.00 L 740.00,730.50 L 739.00,730.50 L 738.50,730.00 L 738.00,729.50 L 737.00,729.50 L 736.00,729.50 L 735.50,729.00 L 735.00,728.50 L 734.50,728.00 L 734.00,727.50 L 733.00,727.50 L 732.50,727.00 L 732.00,726.50 L 731.00,726.50 L 730.50,726.00 L 730.00,725.50 L 729.00,725.50 L 728.00,725.50 L 727.50,725.00 L 727.00,724.50 L 726.00,724.50 L 725.50,724.00 L 725.00,723.50 L 724.00,723.50 L 723.50,723.00 L 723.00,722.50 L 722.00,722.50 L 721.50,722.00 L 721.00,721.50 L 720.00,721.50 L 719.00,721.50 L 718.50,721.00 L 718.00,720.50 L 717.00,720.50 L 716.00,720.50 L 715.50,720.00 L 715.00,719.50 L 714.00,719.50 L 713.50,719.00 L 713.00,718.50 L 712.00,718.50 L 711.00,718.50 L 710.00,718.50 L 709.50,718.00 L 709.00,717.50 L 708.00,717.50 L 707.00,717.50 L 706.50,718.00 L 706.00,718.50 L 705.50,719.00 L 705.00,719.50 L 704.00,719.50 L 703.50,720.00 L 703.00,720.50 L 702.50,721.00 L 702.00,721.50 L 701.00,721.50 L 700.50,722.00 L 700.00,722.50 L 699.00,722.50 L 698.50,723.00 L 698.00,723.50 L 697.00,723.50 L 696.50,724.00 L 696.00,724.50 L 695.00,724.50 L 694.00,724.50 L 693.50,725.00 L 693.00,725.50 L 692.00,725.50 L 691.00,725.50 L 690.50,726.00 L 690.00,726.50 L 689.00,726.50 L 688.00,726.50 L 687.00,726.50 L 686.00,726.50 L 685.50,726.00 L 685.00,725.50 L 684.00,725.50 L 683.00,725.50 L 682.00,725.50 L 681.50,725.00 L 681.00,724.50 L 680.00,724.50 L 679.00,724.50 L 678.50,724.00 L 678.00,723.50 L 677.50,723.00 L 677.00,722.50 L 676.00,722.50 L 675.50,722.00 L 675.00,721.50 L 674.50,721.00 L 674.00,720.50 L 673.50,720.00 L 673.00,719.50 L 672.50,719.00 L 672.00,718.50 L 671.50,718.00 L 671.00,717.50 L 670.50,717.00 L 670.50,716.00 L 670.00,715.50 L 669.50,715.00 L 669.00,714.50 L 668.50,714.00 L 668.50,713.00 L 668.00,712.50 L 667.50,712.00 L 667.50,711.00 L 667.00,710.50 L 666.50,710.00 L 666.00,709.50 L 665.50,709.00 L 665.50,708.00 L 665.00,707.50 L 664.50,707.00 L 664.50,706.00 L 664.00,705.50 L 663.50,705.00 L 663.50,704.00 L 663.00,703.50 L 662.50,703.00 L 662.00,702.50 L 661.50,702.00 L 661.50,701.00 L 661.00,700.50 L 660.50,700.00 L 660.50,699.00 L 660.00,698.50 L 659.50,698.00 L 659.50,697.00 L 659.00,696.50 L 658.50,696.00 L 658.50,695.00 L 658.00,694.50 L 657.50,694.00 L 657.00,693.50 L 656.50,693.00 L 656.50,692.00 L 656.00,691.50 L 655.50,691.00 L 655.50,690.00 L 655.00,689.50 L 654.50,689.00 L 654.00,688.50 L 653.50,688.00 L 653.50,687.00 L 653.00,686.50 L 652.50,686.00 L 652.50,685.00 L 652.00,684.50 L 651.50,684.00 L 651.50,683.00 L 651.00,682.50 L 650.50,682.00 L 650.00,681.50 L 649.50,681.00 L 649.50,680.00 L 649.00,679.50 L 648.50,679.00 L 648.50,678.00 L 648.00,677.50 L 647.50,677.00 L 647.50,676.00 L 647.00,675.50 L 646.50,675.00 L 646.00,674.50 L 645.50,674.00 L 645.50,673.00 L 645.00,672.50 L 644.50,672.00 L 644.50,671.00 L 644.00,670.50 L 643.50,670.00 L 643.00,669.50 L 642.50,669.00 L 642.50,668.00 L 642.00,667.50 L 641.50,667.00 L 641.50,666.00 L 641.00,665.50 L 640.50,665.00 L 640.00,664.50 L 639.50,664.00 L 639.50,663.00 L 639.00,662.50 L 638.50,662.00 L 638.00,661.50 L 637.50,661.00 L 637.50,660.00 L 637.00,659.50 L 636.50,659.00 L 636.50,658.00 L 636.00,657.50 L 635.50,657.00 L 635.50,656.00 L 635.00,655.50 L 634.50,655.00 L 634.00,654.50 L 633.50,654.00 L 633.50,653.00 L 633.00,652.50 L 632.50,652.00 L 632.50,651.00 L 632.00,650.50 L 631.50,650.00 L 631.50,649.00 L 631.00,648.50 L 630.50,648.00 L 630.00,647.50 L 629.50,647.00 L 629.50,646.00 L 629.00,645.50 L 628.50,645.00 L 628.50,644.00 L 628.00,643.50 L 627.50,643.00 L 627.50,642.00 L 627.00,641.50 L 626.50,641.00 L 626.50,640.00 L 626.00,639.50 L 625.50,639.00 L 625.00,638.50 L 624.50,638.00 L 624.50,637.00 L 624.00,636.50 L 623.50,636.00 L 623.50,635.00 L 623.00,634.50 L 622.50,634.00 L 622.00,633.50 L 621.50,633.00 L 621.50,632.00 L 621.00,631.50 L 620.50,631.00 L 620.50,630.00 L 620.00,629.50 L 619.50,629.00 L 619.50,628.00 L 619.00,627.50 L 618.50,627.00 L 618.00,626.50 L 617.50,626.00 L 617.50,625.00 L 617.50,624.00 L 617.00,623.50 L 616.50,623.00 L 616.00,622.50 L 615.50,622.00 L 615.50,621.00 L 615.00,620.50 L 614.50,620.00 L 614.50,619.00 L 614.00,618.50 L 613.50,618.00 L 613.00,617.50 L 612.50,617.00 L 612.50,616.00 L 612.00,615.50 L 611.50,615.00 L 611.50,614.00 L 611.00,613.50 L 610.50,613.00 L 610.50,612.00 L 610.00,611.50 L 609.50,611.00 L 609.00,610.50 L 608.50,610.00 L 608.50,609.00 L 608.00,608.50 L 607.50,608.00 L 607.50,607.00 L 607.00,606.50 L 606.50,606.00 L 606.00,605.50 L 605.50,605.00 L 605.50,604.00 L 605.00,603.50 L 604.50,603.00 L 604.50,602.00 L 604.00,601.50 L 603.50,601.00 L 603.50,600.00 L 603.00,599.50 L 602.50,599.00 L 602.00,598.50 L 601.50,598.00 L 601.50,597.00 L 601.00,596.50 L 600.50,596.00 L 600.50,595.00 L 600.00,594.50 L 599.50,594.00 L 599.00,593.50 L 598.50,593.00 L 598.50,592.00 L 598.00,591.50 L 597.50,591.00 L 597.50,590.00 L 597.00,589.50 L 596.50,589.00 L 596.50,588.00 L 596.00,587.50 L 595.50,587.00 L 595.50,586.00 L 595.00,585.50 L 594.50,585.00 L 594.50,584.00 L 594.00,583.50 L 593.50,583.00 L 593.00,582.50 L 592.50,582.00 L 592.00,581.50 L 591.50,581.00 L 591.50,580.00 L 591.50,579.00 L 591.00,578.50 L 590.50,578.00 L 590.00,577.50 L 589.50,577.00 L 589.50,576.00 L 589.00,575.50 L 588.50,575.00 L 588.50,574.00 L 588.00,573.50 L 587.50,573.00 L 587.00,572.50 L 586.50,572.00 L 586.50,571.00 L 586.00,570.50 L 585.50,570.00 L 585.00,569.50 L 584.50,569.00 L 584.50,568.00 L 584.00,567.50 L 583.50,567.00 L 583.50,566.00 L 583.50,565.00 L 583.00,564.50 L 582.50,564.00 L 583.00,563.50 L 583.50,563.00 L 584.00,562.50 L 585.00,562.50 L 586.00,562.50 L 586.50,563.00 L 587.00,563.50 L 587.50,564.00 L 588.00,564.50 L 589.00,564.50 L 589.50,565.00 L 590.00,565.50 L 591.00,565.50 L 591.50,566.00 L 592.00,566.50 L 592.50,567.00 L 593.00,567.50 L 594.00,567.50 L 594.50,568.00 L 595.00,568.50 L 596.00,568.50 L 596.50,569.00 L 597.00,569.50 L 598.00,569.50 L 598.50,570.00 L 599.00,570.50 L 599.50,571.00 L 600.00,571.50 L 601.00,571.50 L 601.50,572.00 L 602.00,572.50 L 602.50,573.00 L 603.00,573.50 L 604.00,573.50 L 604.50,574.00 L 605.00,574.50 L 606.00,574.50 L 606.50,575.00 L 607.00,575.50 L 608.00,575.50 L 608.50,576.00 L 609.00,576.50 L 610.00,576.50 L 610.50,577.00 L 611.00,577.50 L 611.50,578.00 L 612.00,578.50 L 613.00,578.50 L 613.50,579.00 L 614.00,579.50 L 615.00,579.50 L 615.50,580.00 L 616.00,580.50 L 616.50,581.00 L 617.00,581.50 L 618.00,581.50 L 618.50,582.00 L 619.00,582.50 L 620.00,582.50 L 620.50,583.00 L 621.00,583.50 L 622.00,583.50 L 622.50,584.00 L 623.00,584.50 L 623.50,585.00 L 624.00,585.50 L 625.00,585.50 L 625.50,586.00 L 626.00,586.50 L 627.00,586.50 L 627.50,587.00 L 628.00,587.50 L 629.00,587.50 L 629.50,588.00 L 630.00,588.50 L 630.50,589.00 L 631.00,589.50 L 632.00,589.50 L 632.50,590.00 L 633.00,590.50 L 633.50,591.00 L 634.00,591.50 L 635.00,591.50 L 635.50,592.00 L 636.00,592.50 L 637.00,592.50 L 637.50,593.00 L 638.00,593.50 L 639.00,593.50 L 639.50,594.00 L 640.00,594.50 L 640.50,595.00 L 641.00,595.50 L 642.00,595.50 L 642.50,596.00 L 643.00,596.50 L 643.50,597.00 L 644.00,597.50 L 645.00,597.50 L 645.50,598.00 L 646.00,598.50 L 647.00,598.50 L 647.50,599.00 L 648.00,599.50 L 649.00,599.50 L 649.50,600.00 L 650.00,600.50 L 650.50,601.00 L 651.00,601.50 L 652.00,601.50 L 652.50,602.00 L 653.00,602.50 L 654.00,602.50 L 654.50,603.00 L 655.00,603.50 L 656.00,603.50 L 656.50,604.00 L 657.00,604.50 L 657.50,605.00 L 658.00,605.50 L 659.00,605.50 L 659.50,606.00 L 660.00,606.50 L 661.00,606.50 L 661.50,607.00 L 662.00,607.50 L 663.00,607.50 L 663.50,608.00 L 664.00,608.50 L 664.50,609.00 L 665.00,609.50 L 666.00,609.50 L 666.50,610.00 L 667.00,610.50 L 668.00,610.50 L 668.50,611.00 L 669.00,611.50 L 669.50,612.00 L 670.00,612.50 L 671.00,612.50 L 671.50,613.00 L 672.00,613.50 L 673.00,613.50 L 673.50,614.00 L 674.00,614.50 L 674.50,615.00 L 675.00,615.50 L 676.00,615.50 L 676.50,616.00 L 677.00,616.50 L 678.00,616.50 L 678.50,617.00 L 679.00,617.50 L 679.50,618.00 L 680.00,618.50 L 681.00,618.50 L 681.50,619.00 L 682.00,619.50 L 683.00,619.50 L 683.50,620.00 L 684.00,620.50 L 685.00,620.50 L 685.50,621.00 L 686.00,621.50 L 687.00,621.50 L 687.50,622.00 L 688.00,622.50 L 688.50,623.00 L 689.00,623.50 L 690.00,623.50 L 690.50,624.00 L 691.00,624.50 L 691.50,625.00 L 692.00,625.50 L 693.00,625.50 L 693.50,626.00 L 694.00,626.50 L 695.00,626.50 L 695.50,627.00 L 696.00,627.50 L 697.00,627.50 L 697.50,628.00 L 698.00,628.50 L 698.50,629.00 L 699.00,629.50 L 700.00,629.50 L 700.50,630.00 L 701.00,630.50 L 702.00,630.50 L 702.50,631.00 L 703.00,631.50 L 704.00,631.50 L 704.50,632.00 L 705.00,632.50 L 705.50,633.00 L 706.00,633.50 L 707.00,633.50 L 707.50,634.00 L 708.00,634.50 L 709.00,634.50 L 709.50,635.00 L 710.00,635.50 L 711.00,635.50 L 711.50,636.00 L 712.00,636.50 L 712.50,637.00 L 713.00,637.50 L 714.00,637.50 L 714.50,638.00 L 715.00,638.50 L 716.00,638.50 L 716.50,639.00 L 717.00,639.50 L 718.00,639.50 L 718.50,640.00 L 719.00,640.50 L 719.50,641.00 L 720.00,641.50 L 721.00,641.50 L 721.50,642.00 L 722.00,642.50 L 723.00,642.50 L 723.50,643.00 L 724.00,643.50 L 725.00,643.50 L 725.50,644.00 L 726.00,644.50 L 726.50,645.00 L 727.00,645.50 L 728.00,645.50 L 728.50,646.00 L 729.00,646.50 L 729.50,647.00 L 730.00,647.50 L 731.00,647.50 L 731.50,648.00 L 732.00,648.50 L 733.00,648.50 L 733.50,649.00 L 734.00,649.50 L 735.00,649.50 L 735.50,650.00 L 736.00,650.50 L 736.50,651.00 L 737.00,651.50 L 738.00,651.50 L 738.50,652.00 L 739.00,652.50 L 740.00,652.50 L 740.50,653.00 L 741.00,653.50 L 742.00,653.50 L 742.50,654.00 L 743.00,654.50 L 743.50,655.00 L 744.00,655.50 L 745.00,655.50 L 745.50,656.00 L 746.00,656.50 L 747.00,656.50 L 747.50,657.00 L 748.00,657.50 L 749.00,657.50 L 749.50,658.00 L 750.00,658.50 L 750.50,659.00 L 751.00,659.50 L 752.00,659.50 L 752.50,660.00 L 753.00,660.50 L 753.50,661.00 L 754.00,661.50 L 755.00,661.50 L 755.50,662.00 L 756.00,662.50 L 757.00,662.50 L 757.50,663.00 L 758.00,663.50 L 759.00,663.50 L 759.50,664.00 L 760.00,664.50 L 761.00,664.50 L 761.50,665.00 L 762.00,665.50 L 763.00,665.50 L 763.50,666.00 L 764.00,666.50 L 765.00,666.50 L 766.00,666.50 L 766.50,666.00 L 767.00,665.50 L 767.50,665.00 L 767.50,664.00 L 768.00,663.50 L 768.50,663.00 L 768.50,662.00 L 768.50,661.00 L 768.50,660.00 L 768.50,659.00 L 768.50,658.00 L 769.00,657.50 L 769.50,657.00 L 769.50,656.00 L 769.50,655.00 L 769.50,654.00 L 770.00,653.50 L 770.50,653.00 L 770.50,652.00 L 770.50,651.00 L 770.50,650.00 L 770.50,649.00 L 771.00,648.50 L 771.50,648.00 L 771.50,647.00 L 771.50,646.00 L 772.00,645.50 L 772.50,645.00 L 772.50,644.00 L 772.50,643.00 L 772.50,642.00 L 772.50,641.00 L 773.00,640.50 L 773.50,640.00 L 773.50,639.00 L 773.50,638.00 L 773.50,637.00 L 774.00,636.50 L 774.50,636.00 L 774.50,635.00 L 774.50,634.00 L 774.50,633.00 L 774.50,632.00 L 775.00,631.50 L 775.50,631.00 L 775.50,630.00 L 776.00,629.50 L 776.50,629.00 L 776.50,628.00 L 776.50,627.00 L 776.50,626.00 L 776.50,625.00 L 776.50,624.00 L 777.00,623.50 L 777.50,623.00 L 777.50,622.00 L 777.50,621.00 L 777.50,620.00 L 778.00,619.50 L 778.50,619.00 L 778.50,618.00 L 778.50,617.00 L 778.50,616.00 L 779.00,615.50 L 779.50,615.00 L 779.50,614.00 L 779.50,613.00 L 779.50,612.00 L 780.00,611.50 L 780.50,611.00 L 780.50,610.00 L 780.50,609.00 L 780.50,608.00 L 781.00,607.50 L 781.50,607.00 L 781.50,606.00 L 781.50,605.00 L 781.50,604.00 L 781.50,603.00 L 782.00,602.50 L 782.50,602.00 L 782.50,601.00 L 782.50,600.00 L 782.50,599.00 L 783.00,598.50 L 783.50,598.00 L 783.50,597.00 L 783.50,596.00 L 783.50,595.00 L 784.00,594.50 L 784.50,594.00 L 784.50,593.00 L 784.50,592.00 L 784.50,591.00 L 784.50,590.00 L 785.00,589.50 L 785.50,589.00 L 785.50,588.00 L 785.50,587.00 L 785.50,586.00 L 786.00,585.50 L 786.50,585.00 L 786.50,584.00 L 786.50,583.00 L 786.50,582.00 L 787.00,581.50 L 787.50,581.00 L 787.50,580.00 L 787.50,579.00 L 787.50,578.00 L 788.00,577.50 L 788.50,577.00 L 788.50,576.00 L 788.50,575.00 L 788.50,574.00 L 789.00,573.50 L 789.50,573.00 L 789.50,572.00 L 789.50,571.00 L 789.50,570.00 L 790.00,569.50 L 790.50,569.00 L 790.50,568.00 L 790.50,567.00 L 790.50,566.00 L 791.00,565.50 L 791.50,565.00 L 791.50,564.00 L 791.50,563.00 L 791.50,562.00 L 791.50,561.00 L 792.00,560.50 L 792.50,560.00 L 792.50,559.00 L 792.50,558.00 L 792.50,557.00 L 793.00,556.50 L 793.50,556.00 L 793.50,555.00 L 793.50,554.00 L 793.50,553.00 L 793.50,552.00 L 794.00,551.50 L 794.50,551.00 L 794.50,550.00 L 794.50,549.00 L 794.50,548.00 L 795.00,547.50 L 795.50,547.00 L 795.50,546.00 L 795.50,545.00 L 795.50,544.00 L 796.00,543.50 L 796.50,543.00 L 796.50,542.00 L 796.50,541.00 L 796.50,540.00 L 797.00,539.50 L 797.50,539.00 L 797.50,538.00 L 797.50,537.00 L 797.50,536.00 L 797.50,535.00 L 797.50,534.00 L 798.00,533.50 L 798.50,533.00 L 798.50,532.00 L 798.50,531.00 L 799.00,530.50 L 799.50,530.00 L 799.50,529.00 L 799.50,528.00 L 799.50,527.00 L 799.50,526.00 L 800.00,525.50 L 800.50,525.00 L 800.50,524.00 L 800.50,523.00 L 800.50,522.00 L 801.00,521.50 L 801.50,521.00 L 801.50,520.00 L 801.50,519.00 L 801.50,518.00 L 801.50,517.00 L 802.00,516.50 L 802.50,516.00 L 802.50,515.00 L 802.50,514.00 L 803.00,513.50 L 803.50,513.00 L 803.50,512.00 L 803.50,511.00 L 803.50,510.00 L 803.50,509.00 L 804.00,508.50 L 804.50,508.00 L 804.50,507.00 L 804.50,506.00 L 805.00,505.50 L 805.50,505.00 L 805.50,504.00 L 805.50,503.00 L 805.50,502.00 L 805.50,501.00 L 805.50,500.00 L 806.00,499.50 L 806.50,499.00 L 806.50,498.00 L 806.50,497.00 L 807.00,496.50 L 807.50,496.00 L 807.50,495.00 L 807.50,494.00 L 807.50,493.00 L 807.50,492.00 L 808.00,491.50 L 808.50,491.00 L 808.50,490.00 L 808.50,489.00 L 809.00,488.50 L 809.50,488.00 L 809.50,487.00 L 809.50,486.00 L 809.50,485.00 L 809.50,484.00 L 809.50,483.00 L 810.00,482.50 L 810.50,482.00 L 810.50,481.00 L 810.50,480.00 L 811.00,479.50 L 811.50,479.00 L 811.50,478.00 L 811.50,477.00 L 811.50,476.00 L 812.00,475.50 L 812.50,475.00 L 812.50,474.00 L 812.50,473.00 L 812.50,472.00 L 813.00,471.50 L 813.50,471.00 L 813.50,470.00 L 813.50,469.00 L 813.50,468.00 L 813.50,467.00 L 814.00,466.50 L 814.50,466.00 L 814.50,465.00 L 814.50,464.00 L 815.00,463.50 L 815.50,463.00 L 815.50,462.00 L 815.50,461.00 L 816.00,460.50 L 816.50,460.00 L 817.00,459.50 L 817.50,460.00 L 818.00,460.50 L 819.00,460.50 L 819.50,461.00 L 819.50,462.00 L 819.50,463.00 L 820.00,463.50 L 820.50,464.00 L 820.50,465.00 L 820.50,466.00 L 820.50,467.00 L 821.00,467.50 L 821.50,468.00 L 821.50,469.00 L 821.50,470.00 L 821.50,471.00 L 821.50,472.00 L 822.00,472.50 L 822.50,473.00 L 822.50,474.00 L 822.50,475.00 L 823.00,475.50 L 823.50,476.00 L 823.50,477.00 L 823.50,478.00 L 823.50,479.00 L 823.50,480.00 L 824.00,480.50 L 824.50,481.00 L 824.50,482.00 L 824.50,483.00 L 825.00,483.50 L 825.50,484.00 L 825.50,485.00 L 825.50,486.00 L 825.50,487.00 L 825.50,488.00 L 826.00,488.50 L 826.50,489.00 L 826.50,490.00 L 826.50,491.00 L 826.50,492.00 L 827.00,492.50 L 827.50,493.00 L 827.50,494.00 L 827.50,495.00 L 827.50,496.00 L 828.00,496.50 L 828.50,497.00 L 828.50,498.00 L 828.50,499.00 L 828.50,500.00 L 829.00,500.50 L 829.50,501.00 L 829.50,502.00 L 829.50,503.00 L 829.50,504.00 L 829.50,505.00 L 830.00,505.50 L 830.50,506.00 L 830.50,507.00 L 830.50,508.00 L 831.00,508.50 L 831.50,509.00 L 831.50,510.00 L 831.50,511.00 L 831.50,512.00 L 831.50,513.00 L 832.00,513.50 L 832.50,514.00 L 832.50,515.00 L 832.50,516.00 L 833.00,516.50 L 833.50,517.00 L 833.50,518.00 L 833.50,519.00 L 833.50,520.00 L 833.50,521.00 L 834.00,521.50 L 834.50,522.00 L 834.50,523.00 L 834.50,524.00 L 834.50,525.00 L 835.00,525.50 L 835.50,526.00 L 835.50,527.00 L 835.50,528.00 L 835.50,529.00 L 835.50,530.00 L 836.00,530.50 L 836.50,531.00 L 836.50,532.00 L 836.50,533.00 L 837.00,533.50 L 837.50,534.00 L 837.50,535.00 L 837.50,536.00 L 837.50,537.00 L 837.50,538.00 L 838.00,538.50 L 838.50,539.00 L 838.50,540.00 L 838.50,541.00 L 838.50,542.00 L 839.00,542.50 L 839.50,543.00 L 839.50,544.00 L 839.50,545.00 L 839.50,546.00 L 839.50,547.00 L 840.00,547.50 L 840.50,548.00 L 840.50,549.00 L 840.50,550.00 L 841.00,550.50 L 841.50,551.00 L 841.50,552.00 L 841.50,553.00 L 841.50,554.00 L 841.50,555.00 L 842.00,555.50 L 842.50,556.00 L 842.50,557.00 L 842.50,558.00 L 842.50,559.00 L 843.00,559.50 L 843.50,560.00 L 843.50,561.00 L 843.50,562.00 L 843.50,563.00 L 844.00,563.50 L 844.50,564.00 L 844.50,565.00 L 844.50,566.00 L 844.50,567.00 L 845.00,567.50 L 845.50,568.00 L 845.50,569.00 L 845.50,570.00 L 845.50,571.00 L 845.50,572.00 L 846.00,572.50 L 846.50,573.00 L 846.50,574.00 L 846.50,575.00 L 846.50,576.00 L 846.50,577.00 L 847.00,577.50 L 847.50,578.00 L 847.50,579.00 L 847.50,580.00 L 847.50,581.00 L 848.00,581.50 L 848.50,582.00 L 848.50,583.00 L 848.50,584.00 L 848.50,585.00 L 849.00,585.50 L 849.50,586.00 L 849.50,587.00 L 849.50,588.00 L 849.50,589.00 L 850.00,589.50 L 850.50,590.00 L 850.50,591.00 L 850.50,592.00 L 850.50,593.00 L 850.50,594.00 L 851.00,594.50 L 851.50,595.00 L 851.50,596.00 L 851.50,597.00 L 851.50,598.00 L 852.00,598.50 L 852.50,599.00 L 852.50,600.00 L 852.50,601.00 L 852.50,602.00 L 853.00,602.50 L 853.50,603.00 L 853.50,604.00 L 853.50,605.00 L 853.50,606.00 L 853.50,607.00 L 854.00,607.50 L 854.50,608.00 L 854.50,609.00 L 854.50,610.00 L 854.50,611.00 L 855.00,611.50 L 855.50,612.00 L 855.50,613.00 L 855.50,614.00 L 856.00,614.50 L 856.50,615.00 L 856.50,616.00 L 856.50,617.00 L 856.50,618.00 L 856.50,619.00 L 857.00,619.50 L 857.50,620.00 L 857.50,621.00 L 857.50,622.00 L 857.50,623.00 L 858.00,623.50 L 858.50,624.00 L 858.50,625.00 L 858.50,626.00 L 858.50,627.00 L 859.00,627.50 L 859.50,628.00 L 859.50,629.00 L 859.50,630.00 L 859.50,631.00 L 860.00,631.50 L 860.50,632.00 L 860.50,633.00 L 860.50,634.00 L 860.50,635.00 L 860.50,636.00 L 860.50,637.00 L 860.50,638.00 L 860.50,639.00 L 860.50,640.00 L 860.50,641.00 L 860.50,642.00 L 860.00,642.50 L 859.50,643.00 L 859.50,644.00 L 859.50,645.00 L 859.00,645.50 L 858.50,646.00 L 858.50,647.00 L 858.00,647.50 L 857.50,648.00 L 857.50,649.00 L 857.00,649.50 L 856.50,650.00 L 856.50,651.00 L 856.00,651.50 L 855.50,652.00 L 855.50,653.00 L 855.00,653.50 L 854.50,654.00 L 854.00,654.50 L 853.50,655.00 L 853.50,656.00 L 853.50,657.00 L 853.50,658.00 L 853.50,659.00 L 853.50,660.00 L 853.50,661.00 L 854.00,661.50 L 854.50,662.00 L 854.50,663.00 L 854.50,664.00 L 854.50,665.00 L 854.50,666.00 L 855.00,666.50 L 855.50,667.00 L 855.50,668.00 L 855.50,669.00 L 855.50,670.00 L 855.50,671.00 L 855.50,672.00 L 855.50,673.00 L 855.50,674.00 L 855.50,675.00 L 855.50,676.00 L 855.50,677.00 L 855.50,678.00 L 855.50,679.00 L 855.50,680.00 L 855.50,681.00 L 855.50,682.00 L 855.50,683.00 L 855.50,684.00 L 855.50,685.00 L 855.00,685.50 L 854.50,686.00 L 854.50,687.00 L 854.50,688.00 L 854.50,689.00 L 854.50,690.00 L 854.50,691.00 L 854.50,692.00 L 854.00,692.50 L 853.50,693.00 L 853.50,694.00 L 853.50,695.00 L 853.50,696.00 L 853.50,697.00 L 853.00,697.50 L 852.50,698.00 L 852.50,699.00 L 852.50,700.00 L 852.00,700.50 L 851.50,701.00 L 851.50,702.00 L 851.50,703.00 L 851.50,704.00 L 851.00,704.50 L 850.50,705.00 L 850.50,706.00 L 850.50,707.00 L 850.00,707.50 L 849.50,708.00 L 849.50,709.00 L 849.50,710.00 L 849.50,711.00 L 849.00,711.50 L 848.50,712.00 L 848.50,713.00 L 848.50,714.00 L 848.00,714.50 L 847.50,715.00 L 847.50,716.00 L 847.50,717.00 L 847.00,717.50 L 846.50,718.00 L 846.50,719.00 L 846.00,719.50 L 845.50,720.00 L 845.50,721.00 L 845.50,722.00 L 845.50,723.00 L 845.00,723.50 L 844.50,724.00 L 844.50,725.00 L 844.00,725.50 L 843.50,726.00 L 843.50,727.00 L 843.50,728.00 L 843.00,728.50 L 842.50,729.00 L 842.50,730.00 L 842.00,730.50 L 841.50,731.00 L 841.50,732.00 L 841.50,733.00 L 841.00,733.50 L 840.50,734.00 L 840.50,735.00 L 840.00,735.50 L 839.50,736.00 L 839.50,737.00 L 839.50,738.00 L 839.00,738.50 L 838.50,739.00 L 838.50,740.00 L 838.50,741.00 L 838.00,741.50 L 837.50,742.00 L 837.50,743.00 L 837.50,744.00 L 837.00,744.50 L 836.50,745.00 L 836.50,746.00 L 836.00,746.50 L 835.50,747.00 L 835.50,748.00 L 835.00,748.50 L 834.50,749.00 L 834.50,750.00 L 834.50,751.00 L 834.00,751.50 L 833.50,752.00 L 833.50,753.00 L 833.50,754.00 L 833.00,754.50 L 832.50,755.00 L 832.50,756.00 L 832.00,756.50 L 831.50,757.00 L 831.50,758.00 L 831.50,759.00 L 831.00,759.50 L 830.50,760.00 L 830.50,761.00 L 830.00,761.50 L 829.50,762.00 L 829.50,763.00 L 829.50,764.00 L 829.00,764.50 L 828.50,765.00 L 828.50,766.00 L 828.50,767.00 L 828.00,767.50 L 827.50,768.00 L 827.50,769.00 L 827.00,769.50 L 826.50,770.00 L 826.50,771.00 L 826.50,772.00 L 826.00,772.50 L 825.50,773.00 L 825.50,774.00 L 825.50,775.00 L 825.00,775.50 L 824.50,776.00 L 824.50,777.00 L 824.00,777.50 L 823.50,778.00 L 823.50,779.00 L 823.50,780.00 L 823.00,780.50 L 822.50,781.00 L 822.50,782.00 L 822.50,783.00 L 822.00,783.50 L 821.50,784.00 L 821.50,785.00 L 821.50,786.00 L 821.00,786.50 L 820.50,787.00 L 820.50,788.00 L 820.50,789.00 L 820.00,789.50 L 819.50,790.00 L 819.50,791.00 L 819.00,791.50 L 818.50,792.00 L 818.50,793.00 L 818.50,794.00 L 818.00,794.50 L 817.50,795.00 L 817.50,796.00 L 817.50,797.00 L 817.50,798.00 L 818.00,798.50 L 819.00,798.50 L 819.50,798.00 L 820.00,797.50 L 820.50,797.00 L 821.00,796.50 L 821.50,796.00 L 822.00,795.50 L 822.50,795.00 L 823.00,794.50 L 823.50,794.00 L 824.00,793.50 L 824.50,793.00 L 825.00,792.50 L 825.50,792.00 L 826.00,791.50 L 826.50,791.00 L 827.00,790.50 L 827.50,790.00 L 828.00,789.50 L 828.50,789.00 L 829.00,788.50 L 829.50,788.00 L 829.50,787.00 L 830.00,786.50 L 831.00,786.50 L 831.50,786.00 L 832.00,785.50 L 832.50,785.00 L 832.50,784.00 L 833.00,783.50 L 833.50,783.00 L 834.00,782.50 L 834.50,782.00 L 835.00,781.50 L 836.00,781.50 L 836.50,781.00 L 836.50,780.00 L 837.00,779.50 L 837.50,779.00 L 838.00,778.50 L 838.50,778.00 L 839.00,777.50 L 839.50,777.00 L 840.00,776.50 L 840.50,776.00 L 841.00,775.50 L 841.50,775.00 L 842.00,774.50 L 842.50,774.00 L 843.00,773.50 L 843.50,773.00 L 844.00,772.50 L 844.50,772.00 L 845.00,771.50 L 845.50,771.00 L 846.00,770.50 L 846.50,770.00 L 847.00,769.50 L 847.50,769.00 L 848.00,768.50 L 848.50,768.00 L 849.00,767.50 L 849.50,767.00 L 849.50,766.00 L 850.00,765.50 L 850.50,765.00 L 851.00,764.50 L 851.50,764.00 L 852.00,763.50 L 852.50,763.00 L 853.00,762.50 L 853.50,762.00 L 854.00,761.50 L 854.50,761.00 L 855.00,760.50 L 855.50,760.00 L 856.00,759.50 L 856.50,759.00 L 856.50,758.00 L 857.00,757.50 L 857.50,757.00 L 858.00,756.50 L 858.50,756.00 L 859.00,755.50 L 859.50,755.00 L 860.00,754.50 L 860.50,754.00 L 861.00,753.50 L 861.50,753.00 L 861.50,752.00 L 862.00,751.50 L 863.00,751.50 L 863.50,751.00 L 863.50,750.00 L 864.00,749.50 L 864.50,749.00 L 865.00,748.50 L 865.50,748.00 L 866.00,747.50 L 866.50,747.00 L 867.00,746.50 L 867.50,746.00 L 868.00,745.50 L 868.50,745.00 L 868.50,744.00 L 869.00,743.50 L 869.50,743.00 L 870.00,742.50 L 870.50,742.00 L 871.00,741.50 L 871.50,741.00 L 871.50,740.00 L 872.00,739.50 L 872.50,739.00 L 873.00,738.50 L 873.50,738.00 L 873.50,737.00 L 874.00,736.50 L 874.50,736.00 L 875.00,735.50 L 875.50,735.00 L 875.50,734.00 L 876.00,733.50 L 876.50,733.00 L 877.00,732.50 L 877.50,732.00 L 878.00,731.50 L 878.50,731.00 L 878.50,730.00 L 879.00,729.50 L 879.50,729.00 L 879.50,728.00 L 880.00,727.50 L 880.50,727.00 L 881.00,726.50 L 881.50,726.00 L 881.50,725.00 L 882.00,724.50 L 882.50,724.00 L 882.50,723.00 L 883.00,722.50 L 883.50,722.00 L 883.50,721.00 L 884.00,720.50 L 884.50,720.00 L 885.00,719.50 L 885.50,719.00 L 885.50,718.00 L 885.50,717.00 L 886.00,716.50 L 886.50,716.00 L 887.00,715.50 L 887.50,715.00 L 887.50,714.00 L 887.50,713.00 L 888.00,712.50 L 888.50,712.00 L 888.50,711.00 L 889.00,710.50 L 889.50,710.00 L 889.50,709.00 L 890.00,708.50 L 890.50,708.00 L 890.50,707.00 L 890.50,706.00 L 891.00,705.50 L 891.50,705.00 L 891.50,704.00 L 892.00,703.50 L 892.50,703.00 L 892.50,702.00 L 893.00,701.50 L 893.50,701.00 L 893.50,700.00 L 893.50,699.00 L 894.00,698.50 L 894.50,698.00 L 894.50,697.00 L 895.00,696.50 L 895.50,696.00 L 895.50,695.00 L 895.50,694.00 L 895.50,693.00 L 896.00,692.50 L 896.50,692.00 L 896.50,691.00 L 897.00,690.50 L 897.50,690.00 L 897.50,689.00 L 897.50,688.00 L 897.50,687.00 L 897.50,686.00 L 897.00,685.50 L 896.50,685.00 L 896.50,684.00 L 896.00,683.50 L 895.50,683.00 L 895.50,682.00 L 895.00,681.50 L 894.50,681.00 L 894.00,680.50 L 893.50,680.00 L 893.50,679.00 L 893.00,678.50 L 892.50,678.00 L 892.00,677.50 L 891.50,677.00 L 891.50,676.00 L 891.50,675.00 L 891.00,674.50 L 890.50,674.00 L 890.50,673.00 L 890.50,672.00 L 890.00,671.50 L 889.50,671.00 L 889.50,670.00 L 889.50,669.00 L 889.50,668.00 L 889.50,667.00 L 889.50,666.00 L 889.50,665.00 L 890.00,664.50 L 890.50,664.00 L 890.50,663.00 L 890.50,662.00 L 890.50,661.00 L 891.00,660.50 L 891.50,660.00 L 891.50,659.00 L 892.00,658.50 L 892.50,658.00 L 892.50,657.00 L 893.00,656.50 L 893.50,656.00 L 894.00,655.50 L 894.50,655.00 L 895.00,654.50 L 895.50,654.00 L 896.00,653.50 L 896.50,653.00 L 897.00,652.50 L 897.50,652.00 L 898.00,651.50 L 898.50,651.00 L 899.00,650.50 L 900.00,650.50 L 900.50,650.00 L 901.00,649.50 L 901.50,649.00 L 902.00,648.50 L 903.00,648.50 L 903.50,648.00 L 904.00,647.50 L 905.00,647.50 L 905.50,647.00 L 906.00,646.50 L 907.00,646.50 L 907.50,646.00 L 908.00,645.50 L 909.00,645.50 L 909.50,645.00 L 910.00,644.50 L 910.50,644.00 L 911.00,643.50 L 912.00,643.50 L 912.50,643.00 L 913.00,642.50 L 913.50,642.00 L 914.00,641.50 L 915.00,641.50 L 915.50,641.00 L 916.00,640.50 L 917.00,640.50 L 917.50,640.00 L 918.00,639.50 L 919.00,639.50 L 919.50,639.00 L 920.00,638.50 L 921.00,638.50 L 921.50,638.00 L 922.00,637.50 L 923.00,637.50 L 923.50,637.00 L 924.00,636.50 L 924.50,636.00 L 925.00,635.50 L 926.00,635.50 L 926.50,635.00 L 927.00,634.50 L 927.50,634.00 L 928.00,633.50 L 929.00,633.50 L 929.50,633.00 L 930.00,632.50 L 931.00,632.50 L 931.50,632.00 L 932.00,631.50 L 933.00,631.50 L 933.50,631.00 L 934.00,630.50 L 935.00,630.50 L 935.50,630.00 L 936.00,629.50 L 937.00,629.50 L 937.50,629.00 L 938.00,628.50 L 938.50,628.00 L 939.00,627.50 L 940.00,627.50 L 940.50,627.00 L 941.00,626.50 L 941.50,626.00 L 942.00,625.50 L 943.00,625.50 L 943.50,625.00 L 944.00,624.50 L 945.00,624.50 L 945.50,624.00 L 946.00,623.50 L 946.50,623.00 L 947.00,622.50 L 948.00,622.50 L 948.50,622.00 L 949.00,621.50 L 950.00,621.50 L 950.50,621.00 L 951.00,620.50 L 952.00,620.50 L 952.50,620.00 L 953.00,619.50 L 953.50,619.00 L 954.00,618.50 L 955.00,618.50 L 955.50,618.00 L 956.00,617.50 L 957.00,617.50 L 957.50,617.00 L 958.00,616.50 L 959.00,616.50 L 959.50,616.00 L 960.00,615.50 L 961.00,615.50 L 961.50,615.00 L 962.00,614.50 L 962.50,614.00 L 963.00,613.50 L 964.00,613.50 L 964.50,613.00 L 965.00,612.50 L 965.50,612.00 L 966.00,611.50 L 967.00,611.50 L 967.50,611.00 L 968.00,610.50 L 969.00,610.50 L 969.50,610.00 L 970.00,609.50 L 971.00,609.50 L 971.50,609.00 L 972.00,608.50 L 972.50,608.00 L 973.00,607.50 L 974.00,607.50 L 975.00,607.50 L 975.50,607.00 L 976.00,606.50 L 976.50,606.00 L 977.00,605.50 L 978.00,605.50 L 978.50,605.00 L 979.00,604.50 L 979.50,604.00 L 980.00,603.50 L 981.00,603.50 L 981.50,603.00 L 982.00,602.50 L 983.00,602.50 L 983.50,602.00 L 984.00,601.50 L 985.00,601.50 L 985.50,601.00 L 986.00,600.50 L 986.50,600.00 L 987.00,599.50 L 988.00,599.50 L 988.50,599.00 L 989.00,598.50 L 990.00,598.50 L 990.50,598.00 L 991.00,597.50 L 991.50,597.00 L 992.00,596.50 L 993.00,596.50 L 993.50,596.00 L 994.00,595.50 L 995.00,595.50 L 995.50,595.00 L 996.00,594.50 L 997.00,594.50 L 997.50,594.00 L 998.00,593.50 L 998.50,593.00 L 999.00,592.50 L 1000.00,592.50 L 1000.50,592.00 L 1001.00,591.50 L 1002.00,591.50 L 1002.50,591.00 L 1003.00,590.50 L 1003.50,590.00 L 1004.00,589.50 L 1005.00,589.50 L 1005.50,589.00 L 1006.00,588.50 L 1006.50,588.00 L 1007.00,587.50 L 1008.00,587.50 L 1008.50,587.00 L 1009.00,586.50 L 1009.50,586.00 L 1010.00,585.50 L 1011.00,585.50 L 1011.50,585.00 L 1012.00,584.50 L 1013.00,584.50 L 1013.50,584.00 L 1014.00,583.50 L 1015.00,583.50 L 1015.50,583.00 L 1016.00,582.50 L 1016.50,582.00 L 1017.00,581.50 L 1018.00,581.50 L 1018.50,581.00 L 1019.00,580.50 L 1020.00,580.50 L 1020.50,580.00 L 1021.00,579.50 L 1022.00,579.50 L 1022.50,579.00 L 1023.00,578.50 L 1023.50,578.00 L 1024.00,577.50 L 1025.00,577.50 L 1025.50,577.00 L 1026.00,576.50 L 1027.00,576.50 L 1027.50,576.00 L 1028.00,575.50 L 1029.00,575.50 L 1029.50,575.00 L 1030.00,574.50 L 1030.50,574.00 L 1031.00,573.50 L 1032.00,573.50 L 1032.50,573.00 L 1033.00,572.50 L 1034.00,572.50 L 1034.50,572.00 L 1035.00,571.50 L 1035.50,571.00 L 1036.00,570.50 L 1037.00,570.50 L 1037.50,570.00 L 1038.00,569.50 L 1038.50,569.00 L 1039.00,568.50 L 1040.00,568.50 L 1040.50,568.00 L 1041.00,567.50 L 1042.00,567.50 L 1042.50,567.00 L 1043.00,566.50 L 1043.50,566.00 L 1044.00,565.50 L 1045.00,565.50 L 1045.50,565.00 L 1046.00,564.50 L 1047.00,564.50 L 1047.50,564.00 L 1048.00,563.50 L 1049.00,563.50 L 1049.50,563.00 L 1050.00,562.50 L 1051.00,562.50 L 1051.50,563.00 L 1052.00,563.50 L 1052.50,564.00 L 1052.50,565.00 L 1052.00,565.50 L 1051.50,566.00 L 1051.50,567.00 L 1051.00,567.50 L 1050.50,568.00 L 1050.50,569.00 L 1050.00,569.50 L 1049.50,570.00 L 1049.50,571.00 L 1049.00,571.50 L 1048.50,572.00 L 1048.00,572.50 L 1047.50,573.00 L 1047.50,574.00 L 1047.00,574.50 L 1046.50,575.00 L 1046.50,576.00 L 1046.00,576.50 L 1045.50,577.00 L 1045.00,577.50 L 1044.50,578.00 L 1044.50,579.00 L 1044.00,579.50 L 1043.50,580.00 L 1043.00,580.50 L 1042.50,581.00 L 1042.50,582.00 L 1042.00,582.50 L 1041.50,583.00 L 1041.50,584.00 L 1041.00,584.50 L 1040.50,585.00 L 1040.50,586.00 L 1040.00,586.50 L 1039.50,587.00 L 1039.50,588.00 L 1039.00,588.50 L 1038.50,589.00 L 1038.00,589.50 L 1037.50,590.00 L 1037.50,591.00 L 1037.00,591.50 L 1036.50,592.00 L 1036.50,593.00 L 1036.00,593.50 L 1035.50,594.00 L 1035.50,595.00 L 1035.00,595.50 L 1034.50,596.00 L 1034.50,597.00 L 1034.00,597.50 L 1033.50,598.00 L 1033.50,599.00 L 1033.00,599.50 L 1032.50,600.00 L 1032.00,600.50 L 1031.50,601.00 L 1031.50,602.00 L 1031.00,602.50 L 1030.50,603.00 L 1030.50,604.00 L 1030.00,604.50 L 1029.50,605.00 L 1029.50,606.00 L 1029.00,606.50 L 1028.50,607.00 L 1028.00,607.50 L 1027.50,608.00 L 1027.50,609.00 L 1027.00,609.50 L 1026.50,610.00 L 1026.50,611.00 L 1026.00,611.50 L 1025.50,612.00 L 1025.50,613.00 L 1025.00,613.50 L 1024.50,614.00 L 1024.00,614.50 L 1023.50,615.00 L 1023.50,616.00 L 1023.00,616.50 L 1022.50,617.00 L 1022.50,618.00 L 1022.00,618.50 L 1021.50,619.00 L 1021.50,620.00 L 1021.00,620.50 L 1020.50,621.00 L 1020.00,621.50 L 1019.50,622.00 L 1019.50,623.00 L 1019.00,623.50 L 1018.50,624.00 L 1018.50,625.00 L 1018.00,625.50 L 1017.50,626.00 L 1017.50,627.00 L 1017.00,627.50 L 1016.50,628.00 L 1016.00,628.50 L 1015.50,629.00 L 1015.50,630.00 L 1015.00,630.50 L 1014.50,631.00 L 1014.00,631.50 L 1013.50,632.00 L 1013.50,633.00 L 1013.50,634.00 L 1013.00,634.50 L 1012.50,635.00 L 1012.00,635.50 L 1011.50,636.00 L 1011.50,637.00 L 1011.00,637.50 L 1010.50,638.00 L 1010.50,639.00 L 1010.00,639.50 L 1009.50,640.00 L 1009.50,641.00 L 1009.00,641.50 L 1008.50,642.00 L 1008.00,642.50 L 1007.50,643.00 L 1007.50,644.00 L 1007.00,644.50 L 1006.50,645.00 L 1006.50,646.00 L 1006.00,646.50 L 1005.50,647.00 L 1005.50,648.00 L 1005.00,648.50 L 1004.50,649.00 L 1004.50,650.00 L 1004.00,650.50 L 1003.50,651.00 L 1003.50,652.00 L 1003.00,652.50 L 1002.50,653.00 L 1002.00,653.50 L 1001.50,654.00 L 1001.50,655.00 L 1001.00,655.50 L 1000.50,656.00 L 1000.50,657.00 L 1000.00,657.50 L 999.50,658.00 L 999.50,659.00 L 999.00,659.50 L 998.50,660.00 L 998.50,661.00 L 998.00,661.50 L 997.50,662.00 L 997.00,662.50 L 996.50,663.00 L 996.00,663.50 L 995.50,664.00 L 995.50,665.00 L 995.50,666.00 L 995.00,666.50 L 994.50,667.00 L 994.00,667.50 L 993.50,668.00 L 993.50,669.00 L 993.00,669.50 L 992.50,670.00 L 992.00,670.50 L 991.50,671.00 L 991.50,672.00 L 991.50,673.00 L 991.00,673.50 L 990.50,674.00 L 990.00,674.50 L 989.50,675.00 L 989.50,676.00 L 989.00,676.50 L 988.50,677.00 L 988.50,678.00 L 988.00,678.50 L 987.50,679.00 L 987.00,679.50 L 986.50,680.00 L 986.50,681.00 L 986.00,681.50 L 985.50,682.00 L 985.50,683.00 L 985.00,683.50 L 984.50,684.00 L 984.50,685.00 L 984.00,685.50 L 983.50,686.00 L 983.50,687.00 L 983.00,687.50 L 982.50,688.00 L 982.00,688.50 L 981.50,689.00 L 981.50,690.00 L 981.00,690.50 L 980.50,691.00 L 980.50,692.00 L 980.00,692.50 L 979.50,693.00 L 979.50,694.00 L 979.00,694.50 L 978.50,695.00 L 978.00,695.50 L 977.50,696.00 L 977.50,697.00 L 977.50,698.00 L 977.00,698.50 L 976.50,699.00 L 976.00,699.50 L 975.50,700.00 L 975.50,701.00 L 975.00,701.50 L 974.50,702.00 L 974.50,703.00 L 974.00,703.50 L 973.50,704.00 L 973.50,705.00 L 973.00,705.50 L 972.50,706.00 L 972.50,707.00 L 972.00,707.50 L 971.50,708.00 L 971.50,709.00 L 971.00,709.50 L 970.50,710.00 L 970.00,710.50 L 969.50,711.00 L 969.50,712.00 L 969.00,712.50 L 968.50,713.00 L 968.00,713.50 L 967.50,714.00 L 967.50,715.00 L 967.50,716.00 L 967.00,716.50 L 966.50,717.00 L 966.00,717.50 L 965.50,718.00 L 965.50,719.00 L 965.00,719.50 L 964.50,720.00 L 964.50,721.00 L 964.00,721.50 L 963.50,722.00 L 963.50,723.00 L 963.00,723.50 L 962.50,724.00 L 962.50,725.00 L 962.00,725.50 L 961.50,726.00 L 961.50,727.00 L 961.00,727.50 L 960.50,728.00 L 960.50,729.00 L 960.00,729.50 L 959.50,730.00 L 959.00,730.50 L 958.50,731.00 L 958.50,732.00 L 958.00,732.50 L 957.50,733.00 L 957.50,734.00 L 957.00,734.50 L 956.50,735.00 L 956.50,736.00 L 956.00,736.50 L 955.50,737.00 L 955.50,738.00 L 955.00,738.50 L 954.50,739.00 L 954.00,739.50 L 953.50,740.00 L 953.50,741.00 L 953.50,742.00 L 953.00,742.50 L 952.50,743.00 L 952.00,743.50 L 951.50,744.00 L 951.50,745.00 L 951.00,745.50 L 950.50,746.00 L 950.50,747.00 L 951.00,747.50 L 951.50,748.00 L 952.00,748.50 L 953.00,748.50 L 954.00,748.50 L 954.50,749.00 L 955.00,749.50 L 956.00,749.50 L 957.00,749.50 L 958.00,749.50 L 959.00,749.50 L 959.50,750.00 L 960.00,750.50 L 961.00,750.50 L 962.00,750.50 L 963.00,750.50 L 963.50,751.00 L 964.00,751.50 L 965.00,751.50 L 966.00,751.50 L 967.00,751.50 L 967.50,752.00 L 968.00,752.50 L 969.00,752.50 L 970.00,752.50 L 971.00,752.50 L 971.50,753.00 L 972.00,753.50 L 973.00,753.50 L 974.00,753.50 L 975.00,753.50 L 975.50,754.00 L 976.00,754.50 L 977.00,754.50 L 978.00,754.50 L 979.00,754.50 L 979.50,755.00 L 980.00,755.50 L 981.00,755.50 L 982.00,755.50 L 983.00,755.50 L 983.50,756.00 L 984.00,756.50 L 985.00,756.50 L 986.00,756.50 L 987.00,756.50 L 988.00,756.50 L 988.50,757.00 L 989.00,757.50 L 990.00,757.50 L 991.00,757.50 L 991.50,758.00 L 992.00,758.50 L 993.00,758.50 L 994.00,758.50 L 995.00,758.50 L 996.00,758.50 L 996.50,759.00 L 997.00,759.50 L 998.00,759.50 L 999.00,759.50 L 1000.00,759.50 L 1000.50,760.00 L 1001.00,760.50 L 1002.00,760.50 L 1003.00,760.50 L 1004.00,760.50 L 1005.00,760.50 L 1005.50,761.00 L 1006.00,761.50 L 1007.00,761.50 L 1008.00,761.50 L 1009.00,761.50 L 1009.50,762.00 L 1010.00,762.50 L 1011.00,762.50 L 1012.00,762.50 L 1013.00,762.50 L 1014.00,762.50 L 1014.50,763.00 L 1015.00,763.50 L 1016.00,763.50 L 1017.00,763.50 L 1018.00,763.50 L 1018.50,764.00 L 1019.00,764.50 L 1020.00,764.50 L 1021.00,764.50 L 1022.00,764.50 L 1023.00,764.50 L 1023.50,765.00 L 1024.00,765.50 L 1025.00,765.50 L 1026.00,765.50 L 1026.50,766.00 L 1027.00,766.50 L 1028.00,766.50 L 1029.00,766.50 L 1030.00,766.50 L 1031.00,766.50 L 1031.50,767.00 L 1032.00,767.50 L 1033.00,767.50 L 1034.00,767.50 L 1034.50,768.00 L 1035.00,768.50 L 1036.00,768.50 L 1037.00,768.50 L 1038.00,768.50 L 1039.00,768.50 L 1039.50,769.00 L 1040.00,769.50 L 1041.00,769.50 L 1042.00,769.50 L 1043.00,769.50 L 1043.50,770.00 L 1044.00,770.50 L 1045.00,770.50 L 1046.00,770.50 L 1047.00,770.50 L 1048.00,770.50 L 1048.50,771.00 L 1049.00,771.50 L 1050.00,771.50 L 1051.00,771.50 L 1052.00,771.50 L 1052.50,772.00 L 1053.00,772.50 L 1054.00,772.50 L 1055.00,772.50 L 1055.50,773.00 L 1056.00,773.50 L 1057.00,773.50 L 1058.00,773.50 L 1059.00,773.50 L 1060.00,773.50 L 1060.50,774.00 L 1061.00,774.50 L 1062.00,774.50 L 1063.00,774.50 L 1064.00,774.50 L 1064.50,775.00 L 1065.00,775.50 L 1066.00,775.50 L 1067.00,775.50 L 1068.00,775.50 L 1068.50,776.00 L 1069.00,776.50 L 1070.00,776.50 L 1071.00,776.50 L 1072.00,776.50 L 1072.50,777.00 L 1073.00,777.50 L 1074.00,777.50 L 1075.00,777.50 L 1076.00,777.50 L 1076.50,778.00 L 1077.00,778.50 L 1078.00,778.50 L 1079.00,778.50 L 1080.00,778.50 L 1081.00,778.50 L 1081.50,779.00 L 1082.00,779.50 L 1083.00,779.50 L 1084.00,779.50 L 1085.00,779.50 L 1085.50,780.00 L 1086.00,780.50 L 1087.00,780.50 L 1088.00,780.50 L 1089.00,780.50 L 1089.50,781.00 L 1090.00,781.50 L 1091.00,781.50 L 1092.00,781.50 L 1093.00,781.50 L 1093.50,782.00 L 1094.00,782.50 L 1095.00,782.50 L 1096.00,782.50 L 1097.00,782.50 L 1098.00,782.50 L 1098.50,783.00 L 1099.00,783.50 L 1100.00,783.50 L 1101.00,783.50 L 1101.50,784.00 L 1102.00,784.50 L 1103.00,784.50 L 1104.00,784.50 L 1105.00,784.50 L 1105.50,785.00 L 1106.00,785.50 L 1107.00,785.50 L 1108.00,785.50 L 1109.00,785.50 L 1110.00,785.50 L 1110.50,786.00 L 1111.00,786.50 L 1112.00,786.50 L 1113.00,786.50 L 1114.00,786.50 L 1114.50,787.00 L 1115.00,787.50 L 1116.00,787.50 L 1117.00,787.50 L 1118.00,787.50 L 1118.50,788.00 L 1119.00,788.50 L 1120.00,788.50 L 1121.00,788.50 L 1122.00,788.50 L 1122.50,789.00 L 1123.00,789.50 L 1124.00,789.50 L 1125.00,789.50 L 1126.00,789.50 L 1126.50,790.00 L 1127.00,790.50 L 1128.00,790.50 L 1129.00,790.50 L 1130.00,790.50 L 1131.00,790.50 L 1131.50,791.00 L 1132.00,791.50 L 1133.00,791.50 L 1134.00,791.50 L 1134.50,792.00 L 1135.00,792.50 L 1136.00,792.50 L 1137.00,792.50 L 1138.00,792.50 L 1138.50,793.00 L 1139.00,793.50 L 1140.00,793.50 L 1141.00,793.50 L 1142.00,793.50 L 1142.50,794.00 L 1143.00,794.50 L 1144.00,794.50 L 1145.00,794.50 L 1146.00,794.50 L 1147.00,794.50 L 1147.50,795.00 L 1148.00,795.50 L 1149.00,795.50 L 1150.00,795.50 L 1151.00,795.50 L 1151.50,796.00 L 1152.00,796.50 L 1153.00,796.50 L 1154.00,796.50 L 1155.00,796.50 L 1156.00,796.50 L 1156.50,797.00 L 1157.00,797.50 L 1157.50,798.00 L 1157.50,799.00 L 1157.50,800.00 L 1157.00,800.50 L 1156.00,800.50 L 1155.50,801.00 L 1155.00,801.50 L 1154.00,801.50 L 1153.00,801.50 L 1152.00,801.50 L 1151.50,802.00 L 1151.00,802.50 L 1150.00,802.50 L 1149.00,802.50 L 1148.00,802.50 L 1147.00,802.50 L 1146.50,803.00 L 1146.00,803.50 L 1145.00,803.50 L 1144.00,803.50 L 1143.50,804.00 L 1143.00,804.50 L 1142.00,804.50 L 1141.00,804.50 L 1140.00,804.50 L 1139.00,804.50 L 1138.50,805.00 L 1138.00,805.50 L 1137.00,805.50 L 1136.00,805.50 L 1135.00,805.50 L 1134.50,806.00 L 1134.00,806.50 L 1133.00,806.50 L 1132.00,806.50 L 1131.00,806.50 L 1130.00,806.50 L 1129.50,807.00 L 1129.00,807.50 L 1128.00,807.50 L 1127.00,807.50 L 1126.00,807.50 L 1125.50,808.00 L 1125.00,808.50 L 1124.00,808.50 L 1123.00,808.50 L 1122.00,808.50 L 1121.50,809.00 L 1121.00,809.50 L 1120.00,809.50 L 1119.00,809.50 L 1118.00,809.50 L 1117.50,810.00 L 1117.00,810.50 L 1116.00,810.50 L 1115.00,810.50 L 1114.00,810.50 L 1113.50,811.00 L 1113.00,811.50 L 1112.00,811.50 L 1111.00,811.50 L 1110.00,811.50 L 1109.50,812.00 L 1109.00,812.50 L 1108.00,812.50 L 1107.00,812.50 L 1106.00,812.50 L 1105.00,812.50 L 1104.50,813.00 L 1104.00,813.50 L 1103.00,813.50 L 1102.00,813.50 L 1101.50,814.00 L 1101.00,814.50 L 1100.00,814.50 L 1099.00,814.50 L 1098.00,814.50 L 1097.00,814.50 L 1096.00,814.50 L 1095.50,815.00 L 1095.00,815.50 L 1094.00,815.50 L 1093.00,815.50 L 1092.50,816.00 L 1092.00,816.50 L 1091.00,816.50 L 1090.00,816.50 L 1089.00,816.50 L 1088.00,816.50 L 1087.50,817.00 L 1087.00,817.50 L 1086.00,817.50 L 1085.00,817.50 L 1084.00,817.50 L 1083.50,818.00 L 1083.00,818.50 L 1082.00,818.50 L 1081.00,818.50 L 1080.00,818.50 L 1079.50,819.00 L 1079.00,819.50 L 1078.00,819.50 L 1077.00,819.50 L 1076.00,819.50 L 1075.00,819.50 L 1074.50,820.00 L 1074.00,820.50 L 1073.00,820.50 L 1072.00,820.50 L 1071.50,821.00 L 1071.00,821.50 L 1070.00,821.50 L 1069.00,821.50 L 1068.00,821.50 L 1067.00,821.50 L 1066.50,822.00 L 1066.00,822.50 L 1065.00,822.50 L 1064.00,822.50 L 1063.00,822.50 L 1062.50,823.00 L 1062.00,823.50 L 1061.00,823.50 L 1060.00,823.50 L 1059.00,823.50 L 1058.00,823.50 L 1057.50,824.00 L 1057.00,824.50 L 1056.00,824.50 L 1055.00,824.50 L 1054.50,825.00 L 1054.00,825.50 L 1053.00,825.50 L 1052.00,825.50 L 1051.00,825.50 L 1050.00,825.50 L 1049.50,826.00 L 1049.00,826.50 L 1048.00,826.50 L 1047.00,826.50 L 1046.00,826.50 L 1045.50,827.00 L 1045.00,827.50 L 1044.00,827.50 L 1043.00,827.50 L 1042.00,827.50 L 1041.00,827.50 L 1040.50,828.00 L 1040.00,828.50 L 1039.00,828.50 L 1038.00,828.50 L 1037.00,828.50 L 1036.50,829.00 L 1036.00,829.50 L 1035.00,829.50 L 1034.00,829.50 L 1033.00,829.50 L 1032.50,830.00 L 1032.00,830.50 L 1031.00,830.50 L 1030.00,830.50 L 1029.00,830.50 L 1028.50,831.00 L 1028.00,831.50 L 1027.00,831.50 L 1026.00,831.50 L 1025.00,831.50 L 1024.00,831.50 L 1023.50,832.00 L 1023.00,832.50 L 1022.00,832.50 L 1021.00,832.50 L 1020.50,833.00 L 1020.00,833.50 L 1019.00,833.50 L 1018.00,833.50 L 1017.00,833.50 L 1016.00,833.50 L 1015.50,834.00 L 1015.00,834.50 L 1014.00,834.50 L 1013.00,834.50 L 1012.00,834.50 L 1011.50,835.00 L 1011.00,835.50 L 1010.00,835.50 L 1009.00,835.50 L 1008.00,835.50 L 1007.50,836.00 L 1007.00,836.50 L 1006.00,836.50 L 1005.00,836.50 L 1004.00,836.50 L 1003.50,837.00 L 1003.00,837.50 L 1002.00,837.50 L 1001.00,837.50 L 1000.00,837.50 L 999.00,837.50 L 998.50,838.00 L 998.00,838.50 L 997.00,838.50 L 996.00,838.50 L 995.50,839.00 L 995.00,839.50 L 994.00,839.50 L 993.00,839.50 L 992.00,839.50 L 991.00,839.50 L 990.50,840.00 L 990.00,840.50 L 989.00,840.50 L 988.50,841.00 L 988.00,841.50 L 987.00,841.50 L 986.00,841.50 L 985.00,841.50 L 984.00,841.50 L 983.00,841.50 L 982.50,842.00 L 982.00,842.50 L 981.00,842.50 L 980.00,842.50 L 979.00,842.50 L 978.00,842.50 L 977.00,842.50 L 976.00,842.50 L 975.50,842.00 L 975.00,841.50 L 974.00,841.50 L 973.00,841.50 L 972.50,841.00 L 972.00,840.50 L 971.50,840.00 L 971.00,839.50 L 970.00,839.50 L 969.50,839.00 L 969.00,838.50 L 968.00,838.50 L 967.50,838.00 L 967.00,837.50 L 966.00,837.50 L 965.50,837.00 L 965.00,836.50 L 964.50,836.00 L 964.00,835.50 L 963.00,835.50 L 962.50,835.00 L 962.00,834.50 L 961.00,834.50 L 960.50,834.00 L 960.00,833.50 L 959.00,833.50 L 958.00,833.50 L 957.00,833.50 L 956.00,833.50 L 955.00,833.50 L 954.00,833.50 L 953.50,834.00 L 953.00,834.50 L 952.00,834.50 L 951.00,834.50 L 950.00,834.50 L 949.00,834.50 L 948.50,835.00 L 948.00,835.50 L 947.00,835.50 L 946.00,835.50 L 945.00,835.50 L 944.00,835.50 L 943.00,835.50 L 942.00,835.50 L 941.00,835.50 L 940.00,835.50 L 939.00,835.50 L 938.00,835.50 L 937.00,835.50 L 936.00,835.50 L 935.00,835.50 L 934.00,835.50 L 933.00,835.50 L 932.00,835.50 L 931.00,835.50 L 930.50,835.00 L 930.00,834.50 L 929.00,834.50 L 928.00,834.50 L 927.00,834.50 L 926.00,834.50 L 925.00,834.50 L 924.00,834.50 L 923.00,834.50 L 922.50,834.00 L 922.00,833.50 L 921.00,833.50 L 920.00,833.50 L 919.00,833.50 L 918.00,833.50 L 917.00,833.50 L 916.50,833.00 L 916.00,832.50 L 915.00,832.50 L 914.00,832.50 L 913.50,832.00 L 913.00,831.50 L 912.00,831.50 L 911.00,831.50 L 910.00,831.50 L 909.00,831.50 L 908.50,831.00 L 908.00,830.50 L 907.00,830.50 L 906.00,830.50 L 905.50,830.00 L 905.00,829.50 L 904.00,829.50 L 903.00,829.50 L 902.00,829.50 L 901.50,829.00 L 901.00,828.50 L 900.00,828.50 L 899.00,828.50 L 898.50,828.00 L 898.00,827.50 L 897.00,827.50 L 896.00,827.50 L 895.50,827.00 L 895.00,826.50 L 894.00,826.50 L 893.00,826.50 L 892.50,826.00 L 892.00,825.50 L 891.00,825.50 L 890.00,825.50 L 889.50,825.00 L 889.00,824.50 L 888.00,824.50 L 887.50,824.00 L 887.00,823.50 L 886.00,823.50 L 885.00,823.50 L 884.50,823.00 L 884.00,822.50 L 883.00,822.50 L 882.00,822.50 L 881.50,822.00 L 881.00,821.50 L 880.00,821.50 L 879.00,821.50 L 878.50,821.00 L 878.00,820.50 L 877.00,820.50 L 876.50,820.00 L 876.00,819.50 L 875.00,819.50 L 874.00,819.50 L 873.50,819.00 L 873.00,818.50 L 872.00,818.50 L 871.00,818.50 L 870.00,818.50 L 869.50,818.00 L 869.00,817.50 L 868.00,817.50 L 867.00,817.50 L 866.50,817.00 L 866.00,816.50 L 865.00,816.50 L 864.50,816.00 L 864.00,815.50 L 863.00,815.50 L 862.00,815.50 L 861.50,815.00 L 861.00,814.50 L 860.00,814.50 L 859.00,814.50 L 858.50,814.00 L 858.00,813.50 L 857.00,813.50 L 856.50,813.00 L 856.00,812.50 L 855.00,812.50 L 854.00,812.50 L 853.50,812.00 L 853.00,811.50 L 852.00,811.50 L 851.00,811.50 L 850.50,811.00 L 850.00,810.50 L 849.00,810.50 L 848.00,810.50 L 847.50,810.00 L 847.00,809.50 L 846.00,809.50 L 845.00,809.50 L 844.50,809.00 L 844.00,808.50 L 843.00,808.50 L 842.50,808.00 L 842.00,807.50 L 841.00,807.50 L 840.00,807.50 L 839.50,807.00 L 839.00,806.50 L 838.00,806.50 L 837.50,806.00 L 837.00,805.50 L 836.00,805.50 L 835.00,805.50 L 834.50,805.00 L 834.00,804.50 L 833.00,804.50 L 832.00,804.50 L 831.50,804.00 L 831.00,803.50 L 830.00,803.50 L 829.00,803.50 L 828.00,803.50 L 827.50,803.00 L 827.00,802.50 L 826.00,802.50 L 825.50,802.00 L 825.00,801.50 L 824.00,801.50 L 823.00,801.50 L 822.00,801.50 L 821.00,801.50 L 820.00,801.50 L 819.50,802.00 L 819.50,803.00 L 820.00,803.50 L 820.50,804.00 L 821.00,804.50 L 821.50,805.00 L 822.00,805.50 L 822.50,806.00 L 823.00,806.50 L 823.50,807.00 L 824.00,807.50 L 824.50,808.00 L 825.00,808.50 L 825.50,809.00 L 826.00,809.50 L 826.50,810.00 L 827.00,810.50 L 827.50,811.00 L 828.00,811.50 L 828.50,812.00 L 829.00,812.50 L 829.50,813.00 L 830.00,813.50 L 830.50,814.00 L 831.00,814.50 L 831.50,815.00 L 832.00,815.50 L 832.50,816.00 L 833.00,816.50 L 833.50,817.00 L 834.00,817.50 L 834.50,818.00 L 835.00,818.50 L 835.50,819.00 L 836.00,819.50 L 836.50,820.00 L 837.00,820.50 L 837.50,821.00 L 838.00,821.50 L 838.50,822.00 L 839.00,822.50 L 839.50,823.00 L 840.00,823.50 L 840.50,824.00 L 841.00,824.50 L 841.50,825.00 L 842.00,825.50 L 842.50,826.00 L 842.50,827.00 L 843.00,827.50 L 844.00,827.50 L 844.50,828.00 L 845.00,828.50 L 845.50,829.00 L 846.00,829.50 L 846.50,830.00 L 847.00,830.50 L 847.50,831.00 L 848.00,831.50 L 848.50,832.00 L 849.00,832.50 L 849.50,833.00 L 850.00,833.50 L 850.50,834.00 L 851.00,834.50 L 851.50,835.00 L 852.00,835.50 L 852.50,836.00 L 853.00,836.50 L 853.50,837.00 L 854.00,837.50 L 854.50,838.00 L 855.00,838.50 L 855.50,839.00 L 856.00,839.50 L 856.50,840.00 L 857.00,840.50 L 857.50,841.00 L 858.00,841.50 L 858.50,842.00 L 859.00,842.50 L 860.00,842.50 L 860.50,843.00 L 861.00,843.50 L 861.50,844.00 L 862.00,844.50 L 862.50,845.00 L 863.00,845.50 L 863.50,846.00 L 864.00,846.50 L 865.00,846.50 L 865.50,847.00 L 866.00,847.50 L 866.50,848.00 L 867.00,848.50 L 867.50,849.00 L 868.00,849.50 L 868.50,850.00 L 869.00,850.50 L 869.50,851.00 L 870.00,851.50 L 871.00,851.50 L 871.50,852.00 L 872.00,852.50 L 872.50,853.00 L 873.00,853.50 L 874.00,853.50 L 874.50,854.00 L 875.00,854.50 L 875.50,855.00 L 876.00,855.50 L 877.00,855.50 L 877.50,856.00 L 878.00,856.50 L 878.50,857.00 L 879.00,857.50 L 880.00,857.50 L 880.50,858.00 L 881.00,858.50 L 881.50,859.00 L 882.00,859.50 L 883.00,859.50 L 883.50,860.00 L 884.00,860.50 L 884.50,861.00 L 885.00,861.50 L 886.00,861.50 L 887.00,861.50 L 887.50,862.00 L 887.50,863.00 L 888.00,863.50 L 889.00,863.50 L 890.00,863.50 L 890.50,864.00 L 891.00,864.50 L 891.50,865.00 L 892.00,865.50 L 893.00,865.50 L 893.50,866.00 L 894.00,866.50 L 895.00,866.50 L 895.50,867.00 L 896.00,867.50 L 897.00,867.50 L 897.50,868.00 L 898.00,868.50 L 898.50,869.00 L 899.00,869.50 L 900.00,869.50 L 901.00,869.50 L 901.50,870.00 L 902.00,870.50 L 902.50,871.00 L 903.00,871.50 L 904.00,871.50 L 905.00,871.50 L 905.50,872.00 L 906.00,872.50 L 907.00,872.50 L 907.50,873.00 L 908.00,873.50 L 909.00,873.50 L 909.50,874.00 L 910.00,874.50 L 911.00,874.50 L 911.50,875.00 L 912.00,875.50 L 913.00,875.50 L 913.50,876.00 L 914.00,876.50 L 915.00,876.50 L 916.00,876.50 L 916.50,877.00 L 917.00,877.50 L 918.00,877.50 L 919.00,877.50 L 919.50,878.00 L 920.00,878.50 L 921.00,878.50 L 921.50,879.00 L 922.00,879.50 L 923.00,879.50 L 924.00,879.50 L 924.50,880.00 L 925.00,880.50 L 926.00,880.50 L 927.00,880.50 L 928.00,880.50 L 929.00,880.50 L 929.50,880.00 L 930.00,879.50 L 931.00,879.50 L 931.50,879.00 L 932.00,878.50 L 932.50,878.00 L 933.00,877.50 L 933.50,877.00 L 934.00,876.50 L 934.50,876.00 L 935.00,875.50 L 936.00,875.50 L 936.50,875.00 L 937.00,874.50 L 938.00,874.50 L 938.50,874.00 L 939.00,873.50 L 940.00,873.50 L 941.00,873.50 L 941.50,873.00 L 942.00,872.50 L 943.00,872.50 L 944.00,872.50 L 945.00,872.50 L 945.50,872.00 L 946.00,871.50 L 947.00,871.50 L 948.00,871.50 L 949.00,871.50 L 950.00,871.50 L 951.00,871.50 L 952.00,871.50 L 952.50,872.00 L 953.00,872.50 L 954.00,872.50 L 954.50,873.00 L 955.00,873.50 L 956.00,873.50 L 957.00,873.50 L 957.50,874.00 L 958.00,874.50 L 958.50,875.00 L 959.00,875.50 L 959.50,876.00 L 960.00,876.50 L 961.00,876.50 L 961.50,877.00 L 962.00,877.50 L 962.50,878.00 L 962.50,879.00 L 963.00,879.50 L 963.50,880.00 L 964.00,880.50 L 964.50,881.00 L 965.00,881.50 L 965.50,882.00 L 965.50,883.00 L 966.00,883.50 L 966.50,884.00 L 967.00,884.50 L 967.50,885.00 L 967.50,886.00 L 968.00,886.50 L 968.50,887.00 L 969.00,887.50 L 969.50,888.00 L 969.50,889.00 L 970.00,889.50 L 970.50,890.00 L 970.50,891.00 L 971.00,891.50 L 971.50,892.00 L 972.00,892.50 L 972.50,893.00 L 972.50,894.00 L 973.00,894.50 L 973.50,895.00 L 973.50,896.00 L 974.00,896.50 L 974.50,897.00 L 975.00,897.50 L 975.50,898.00 L 975.50,899.00 L 976.00,899.50 L 976.50,900.00 L 976.50,901.00 L 977.00,901.50 L 977.50,902.00 L 977.50,903.00 L 978.00,903.50 L 978.50,904.00 L 978.50,905.00 L 979.00,905.50 L 979.50,906.00 L 980.00,906.50 L 980.50,907.00 L 980.50,908.00 L 981.00,908.50 L 981.50,909.00 L 981.50,910.00 L 982.00,910.50 L 982.50,911.00 L 982.50,912.00 L 983.00,912.50 L 983.50,913.00 L 983.50,914.00 L 984.00,914.50 L 984.50,915.00 L 985.00,915.50 L 985.50,916.00 L 985.50,917.00 L 986.00,917.50 L 986.50,918.00 L 986.50,919.00 L 987.00,919.50 L 987.50,920.00 L 988.00,920.50 L 988.50,921.00 L 988.50,922.00 L 989.00,922.50 L 989.50,923.00 L 989.50,924.00 L 990.00,924.50 L 990.50,925.00 L 991.00,925.50 L 991.50,926.00 L 991.50,927.00 L 992.00,927.50 L 992.50,928.00 L 992.50,929.00 L 993.00,929.50 L 993.50,930.00 L 994.00,930.50 L 994.50,931.00 L 994.50,932.00 L 995.00,932.50 L 995.50,933.00 L 995.50,934.00 L 996.00,934.50 L 996.50,935.00 L 996.50,936.00 L 997.00,936.50 L 997.50,937.00 L 998.00,937.50 L 998.50,938.00 L 998.50,939.00 L 999.00,939.50 L 999.50,940.00 L 999.50,941.00 L 1000.00,941.50 L 1000.50,942.00 L 1001.00,942.50 L 1001.50,943.00 L 1001.50,944.00 L 1001.50,945.00 L 1002.00,945.50 L 1002.50,946.00 L 1003.00,946.50 L 1003.50,947.00 L 1003.50,948.00 L 1004.00,948.50 L 1004.50,949.00 L 1005.00,949.50 L 1005.50,950.00 L 1005.50,951.00 L 1006.00,951.50 L 1006.50,952.00 L 1006.50,953.00 L 1007.00,953.50 L 1007.50,954.00 L 1007.50,955.00 L 1008.00,955.50 L 1008.50,956.00 L 1009.00,956.50 L 1009.50,957.00 L 1009.50,958.00 L 1010.00,958.50 L 1010.50,959.00 L 1010.50,960.00 L 1011.00,960.50 L 1011.50,961.00 L 1012.00,961.50 L 1012.50,962.00 L 1012.50,963.00 L 1013.00,963.50 L 1013.50,964.00 L 1013.50,965.00 L 1014.00,965.50 L 1014.50,966.00 L 1014.50,967.00 L 1015.00,967.50 L 1015.50,968.00 L 1015.50,969.00 L 1016.00,969.50 L 1016.50,970.00 L 1017.00,970.50 L 1017.50,971.00 L 1017.50,972.00 L 1018.00,972.50 L 1018.50,973.00 L 1018.50,974.00 L 1019.00,974.50 L 1019.50,975.00 L 1020.00,975.50 L 1020.50,976.00 L 1020.50,977.00 L 1021.00,977.50 L 1021.50,978.00 L 1021.50,979.00 L 1022.00,979.50 L 1022.50,980.00 L 1022.50,981.00 L 1023.00,981.50 L 1023.50,982.00 L 1023.50,983.00 L 1024.00,983.50 L 1024.50,984.00 L 1025.00,984.50 L 1025.50,985.00 L 1025.50,986.00 L 1026.00,986.50 L 1026.50,987.00 L 1027.00,987.50 L 1027.50,988.00 L 1027.50,989.00 L 1028.00,989.50 L 1028.50,990.00 L 1028.50,991.00 L 1029.00,991.50 L 1029.50,992.00 L 1029.50,993.00 L 1030.00,993.50 L 1030.50,994.00 L 1031.00,994.50 L 1031.50,995.00 L 1031.50,996.00 L 1032.00,996.50 L 1032.50,997.00 L 1033.00,997.50 L 1033.50,998.00 L 1033.50,999.00 L 1034.00,999.50 L 1034.50,1000.00 L 1034.50,1001.00 L 1035.00,1001.50 L 1035.50,1002.00 L 1035.50,1003.00 L 1036.00,1003.50 L 1036.50,1004.00 L 1036.50,1005.00 L 1037.00,1005.50 L 1037.50,1006.00 L 1038.00,1006.50 L 1038.50,1007.00 L 1038.50,1008.00 L 1039.00,1008.50 L 1039.50,1009.00 L 1039.50,1010.00 L 1040.00,1010.50 L 1040.50,1011.00 L 1040.50,1012.00 L 1041.00,1012.50 L 1041.50,1013.00 L 1042.00,1013.50 L 1042.50,1014.00 L 1042.50,1015.00 L 1043.00,1015.50 L 1043.50,1016.00 L 1043.50,1017.00 L 1044.00,1017.50 L 1044.50,1018.00 L 1045.00,1018.50 L 1045.50,1019.00 L 1045.50,1020.00 L 1046.00,1020.50 L 1046.50,1021.00 L 1046.50,1022.00 L 1047.00,1022.50 L 1047.50,1023.00 L 1047.50,1024.00 L 1048.00,1024.50 L 1048.50,1025.00 L 1049.00,1025.50 L 1049.50,1026.00 L 1049.50,1027.00 L 1050.00,1027.50 L 1050.50,1028.00 L 1050.50,1029.00 L 1051.00,1029.50 L 1051.50,1030.00 L 1051.50,1031.00 L 1052.00,1031.50 L 1052.50,1032.00 L 1052.50,1033.00 L 1052.50,1034.00 L 1052.00,1034.50 L 1051.00,1034.50 L 1050.00,1034.50 L 1049.50,1034.00 L 1049.00,1033.50 L 1048.00,1033.50 L 1047.50,1033.00 L 1047.00,1032.50 L 1046.00,1032.50 L 1045.50,1032.00 L 1045.00,1031.50 L 1044.50,1031.00 L 1044.00,1030.50 L 1043.00,1030.50 L 1042.50,1030.00 L 1042.00,1029.50 L 1041.50,1029.00 L 1041.00,1028.50 L 1040.00,1028.50 L 1039.50,1028.00 L 1039.00,1027.50 L 1038.00,1027.50 L 1037.50,1027.00 L 1037.00,1026.50 L 1036.50,1026.00 L 1036.00,1025.50 L 1035.00,1025.50 L 1034.50,1025.00 L 1034.00,1024.50 L 1033.00,1024.50 L 1032.50,1024.00 L 1032.00,1023.50 L 1031.50,1023.00 L 1031.00,1022.50 L 1030.00,1022.50 L 1029.50,1022.00 L 1029.00,1021.50 L 1028.00,1021.50 L 1027.50,1021.00 L 1027.00,1020.50 L 1026.00,1020.50 L 1025.50,1020.00 L 1025.00,1019.50 L 1024.50,1019.00 L 1024.00,1018.50 L 1023.00,1018.50 L 1022.50,1018.00 L 1022.00,1017.50 L 1021.00,1017.50 L 1020.50,1017.00 L 1020.00,1016.50 L 1019.50,1016.00 L 1019.00,1015.50 L 1018.00,1015.50 L 1017.50,1015.00 L 1017.00,1014.50 L 1016.00,1014.50 L 1015.50,1014.00 L 1015.00,1013.50 L 1014.00,1013.50 L 1013.50,1013.00 L 1013.00,1012.50 L 1012.50,1012.00 L 1012.00,1011.50 L 1011.00,1011.50 L 1010.50,1011.00 L 1010.00,1010.50 L 1009.00,1010.50 L 1008.50,1010.00 L 1008.00,1009.50 L 1007.50,1009.00 L 1007.00,1008.50 L 1006.00,1008.50 L 1005.50,1008.00 L 1005.00,1007.50 L 1004.00,1007.50 L 1003.50,1007.00 L 1003.00,1006.50 L 1002.50,1006.00 L 1002.00,1005.50 L 1001.00,1005.50 L 1000.50,1005.00 L 1000.00,1004.50 L 999.00,1004.50 L 998.50,1004.00 L 998.00,1003.50 L 997.00,1003.50 L 996.50,1003.00 L 996.00,1002.50 L 995.00,1002.50 L 994.50,1002.00 L 994.00,1001.50 L 993.50,1001.00 L 993.00,1000.50 L 992.00,1000.50 L 991.50,1000.00 L 991.00,999.50 L 990.00,999.50 L 989.50,999.00 L 989.00,998.50 L 988.50,998.00 L 988.00,997.50 L 987.00,997.50 L 986.50,997.00 L 986.00,996.50 L 985.00,996.50 L 984.50,996.00 L 984.00,995.50 L 983.50,995.00 L 983.00,994.50 L 982.00,994.50 L 981.50,994.00 L 981.00,993.50 L 980.00,993.50 L 979.50,993.00 L 979.00,992.50 L 978.50,992.00 L 978.00,991.50 L 977.00,991.50 L 976.00,991.50 L 975.50,991.00 L 975.00,990.50 L 974.50,990.00 L 974.00,989.50 L 973.00,989.50 L 972.50,989.00 L 972.00,988.50 L 971.00,988.50 L 970.50,988.00 L 970.00,987.50 L 969.00,987.50 L 968.50,987.00 L 968.00,986.50 L 967.50,986.00 L 967.00,985.50 L 966.00,985.50 L 965.50,985.00 L 965.00,984.50 L 964.50,984.00 L 964.00,983.50 L 963.00,983.50 L 962.00,983.50 L 961.50,983.00 L 961.00,982.50 L 960.50,982.00 L 960.00,981.50 L 959.00,981.50 L 958.50,981.00 L 958.00,980.50 L 957.00,980.50 L 956.50,980.00 L 956.00,979.50 L 955.00,979.50 L 954.50,979.00 L 954.00,978.50 L 953.50,978.00 L 953.00,977.50 L 952.00,977.50 L 951.50,977.00 L 951.00,976.50 L 950.00,976.50 L 949.50,976.00 L 949.00,975.50 L 948.00,975.50 L 947.50,975.00 L 947.00,974.50 L 946.50,974.00 L 946.00,973.50 L 945.00,973.50 L 944.50,973.00 L 944.00,972.50 L 943.50,972.00 L 943.00,971.50 L 942.00,971.50 L 941.50,971.00 L 941.00,970.50 L 940.00,970.50 L 939.50,970.00 L 939.00,969.50 L 938.00,969.50 L 937.50,969.00 L 937.00,968.50 L 936.00,968.50 L 935.50,968.00 L 935.00,967.50 L 934.00,967.50 L 933.50,967.00 L 933.00,966.50 L 932.50,966.00 L 932.00,965.50 L 931.00,965.50 L 930.50,965.00 L 930.00,964.50 L 929.00,964.50 L 928.50,964.00 L 928.00,963.50 L 927.50,963.00 L 927.00,962.50 L 926.00,962.50 L 925.50,962.00 L 925.00,961.50 L 924.00,961.50 L 923.50,961.00 L 923.00,960.50 L 922.50,960.00 L 922.00,959.50 L 921.00,959.50 L 920.50,959.00 L 920.00,958.50 L 919.00,958.50 L 918.50,958.00 L 918.00,957.50 L 917.00,957.50 L 916.50,957.00 L 916.00,956.50 L 915.00,956.50 L 914.50,956.00 L 914.00,955.50 L 913.00,955.50 L 912.50,955.00 L 912.00,954.50 L 911.50,954.00 L 911.00,953.50 L 910.00,953.50 L 909.50,953.00 L 909.00,952.50 L 908.00,952.50 L 907.50,952.00 L 907.00,951.50 L 906.50,951.00 L 906.00,950.50 L 905.00,950.50 L 904.00,950.50 L 903.50,950.00 L 903.00,949.50 L 902.50,949.00 L 902.00,948.50 L 901.00,948.50 L 900.50,948.00 L 900.00,947.50 L 899.00,947.50 L 898.50,947.00 L 898.00,946.50 L 897.00,946.50 L 896.50,946.00 L 896.00,945.50 L 895.50,945.00 L 895.00,944.50 L 894.00,944.50 L 893.50,944.00 L 893.00,943.50 L 892.00,943.50 L 891.50,943.00 L 891.00,942.50 L 890.00,942.50 L 889.50,942.00 L 889.00,941.50 L 888.00,941.50 L 887.50,941.00 L 887.00,940.50 L 886.00,940.50 L 885.50,940.00 L 885.00,939.50 L 884.50,939.00 L 884.00,938.50 L 883.00,938.50 L 882.50,938.00 L 882.00,937.50 L 881.00,937.50 L 880.50,937.00 L 880.00,936.50 L 879.50,936.00 L 879.00,935.50 L 878.00,935.50 L 877.50,935.00 L 877.00,934.50 L 876.00,934.50 L 875.50,934.00 L 875.00,933.50 L 874.00,933.50 L 873.50,933.00 L 873.00,932.50 L 872.00,932.50 L 871.50,932.00 L 871.00,931.50 L 870.00,931.50 L 869.00,931.50 L 868.50,932.00 L 868.00,932.50 L 867.50,933.00 L 867.50,934.00 L 867.50,935.00 L 867.00,935.50 L 866.50,936.00 L 866.50,937.00 L 866.50,938.00 L 866.50,939.00 L 866.50,940.00 L 866.50,941.00 L 866.00,941.50 L 865.50,942.00 L 865.50,943.00 L 865.50,944.00 L 865.50,945.00 L 865.00,945.50 L 864.50,946.00 L 864.50,947.00 L 864.50,948.00 L 864.50,949.00 L 864.00,949.50 L 863.50,950.00 L 863.50,951.00 L 863.50,952.00 L 863.00,952.50 L 862.50,953.00 L 862.50,954.00 L 862.50,955.00 L 862.50,956.00 L 862.50,957.00 L 862.00,957.50 L 861.50,958.00 L 861.50,959.00 L 861.50,960.00 L 861.50,961.00 L 861.50,962.00 L 861.00,962.50 L 860.50,963.00 L 860.50,964.00 L 860.50,965.00 L 860.50,966.00 L 860.00,966.50 L 859.50,967.00 L 859.50,968.00 L 859.50,969.00 L 859.00,969.50 L 858.50,970.00 L 858.50,971.00 L 858.50,972.00 L 858.50,973.00 L 858.50,974.00 L 858.50,975.00 L 858.00,975.50 L 857.50,976.00 L 857.50,977.00 L 857.50,978.00 L 857.00,978.50 L 856.50,979.00 L 856.50,980.00 L 856.50,981.00 L 856.50,982.00 L 856.50,983.00 L 856.00,983.50 L 855.50,984.00 L 855.50,985.00 L 855.50,986.00 L 855.00,986.50 L 854.50,987.00 L 854.50,988.00 L 854.50,989.00 L 854.50,990.00 L 854.50,991.00 L 854.00,991.50 L 853.50,992.00 L 853.50,993.00 L 853.50,994.00 L 853.50,995.00 L 853.50,996.00 L 853.00,996.50 L 852.50,997.00 L 852.50,998.00 L 852.50,999.00 L 852.00,999.50 L 851.50,1000.00 L 851.50,1001.00 L 851.50,1002.00 L 851.50,1003.00 L 851.50,1004.00 L 851.00,1004.50 L 850.50,1005.00 L 850.50,1006.00 L 850.50,1007.00 L 850.50,1008.00 L 850.00,1008.50 L 849.50,1009.00 L 849.50,1010.00 L 849.50,1011.00 L 849.50,1012.00 L 849.00,1012.50 L 848.50,1013.00 L 848.50,1014.00 L 848.50,1015.00 L 848.50,1016.00 L 848.00,1016.50 L 847.50,1017.00 L 847.50,1018.00 L 847.50,1019.00 L 847.50,1020.00 L 847.50,1021.00 L 847.00,1021.50 L 846.50,1022.00 L 846.50,1023.00 L 846.50,1024.00 L 846.50,1025.00 L 846.00,1025.50 L 845.50,1026.00 L 845.50,1027.00 L 845.50,1028.00 L 845.50,1029.00 L 845.00,1029.50 L 844.50,1030.00 L 844.50,1031.00 L 844.50,1032.00 L 844.50,1033.00 L 844.00,1033.50 L 843.50,1034.00 L 843.50,1035.00 L 843.50,1036.00 L 843.50,1037.00 L 843.00,1037.50 L 842.50,1038.00 L 842.50,1039.00 L 842.50,1040.00 L 842.50,1041.00 L 842.50,1042.00 L 842.00,1042.50 L 841.50,1043.00 L 841.50,1044.00 L 841.50,1045.00 L 841.50,1046.00 L 841.50,1047.00 L 841.00,1047.50 L 840.50,1048.00 L 840.50,1049.00 L 840.50,1050.00 L 840.00,1050.50 L 839.50,1051.00 L 839.50,1052.00 L 839.50,1053.00 L 839.50,1054.00 L 839.50,1055.00 L 839.00,1055.50 L 838.50,1056.00 L 838.50,1057.00 L 838.50,1058.00 L 838.00,1058.50 L 837.50,1059.00 L 837.50,1060.00 L 837.50,1061.00 L 837.50,1062.00 L 837.50,1063.00 L 837.50,1064.00 L 837.00,1064.50 L 836.50,1065.00 L 836.50,1066.00 L 836.50,1067.00 L 836.00,1067.50 L 835.50,1068.00 L 835.50,1069.00 L 835.50,1070.00 L 835.50,1071.00 L 835.00,1071.50 L 834.50,1072.00 L 834.50,1073.00 L 834.50,1074.00 L 834.50,1075.00 L 834.00,1075.50 L 833.50,1076.00 L 833.50,1077.00 L 833.50,1078.00 L 833.50,1079.00 L 833.50,1080.00 L 833.00,1080.50 L 832.50,1081.00 L 832.50,1082.00 L 832.50,1083.00 L 832.00,1083.50 L 831.50,1084.00 L 831.50,1085.00 L 831.50,1086.00 L 831.50,1087.00 L 831.50,1088.00 L 831.00,1088.50 L 830.50,1089.00 L 830.50,1090.00 L 830.50,1091.00 L 830.50,1092.00 L 830.00,1092.50 L 829.50,1093.00 L 829.50,1094.00 L 829.50,1095.00 L 829.50,1096.00 L 829.00,1096.50 L 828.50,1097.00 L 828.50,1098.00 L 828.50,1099.00 L 828.50,1100.00 L 828.00,1100.50 L 827.50,1101.00 L 827.50,1102.00 L 827.50,1103.00 L 827.50,1104.00 L 827.50,1105.00 L 827.00,1105.50 L 826.50,1106.00 L 826.50,1107.00 L 826.50,1108.00 L 826.00,1108.50 L 825.50,1109.00 L 825.50,1110.00 L 825.50,1111.00 L 825.50,1112.00 L 825.50,1113.00 L 825.50,1114.00 L 825.00,1114.50 L 824.50,1115.00 L 824.50,1116.00 L 824.50,1117.00 L 824.00,1117.50 L 823.50,1118.00 L 823.50,1119.00 L 823.50,1120.00 L 823.50,1121.00 L 823.00,1121.50 L 822.50,1122.00 L 822.50,1123.00 L 822.50,1124.00 L 822.50,1125.00 L 822.00,1125.50 L 821.50,1126.00 L 821.50,1127.00 L 821.50,1128.00 L 821.50,1129.00 L 821.50,1130.00 L 821.00,1130.50 L 820.50,1131.00 L 820.50,1132.00 L 820.50,1133.00 L 820.00,1133.50 L 819.50,1134.00 L 819.50,1135.00 L 819.50,1136.00 L 819.00,1136.50 L 818.50,1137.00 L 818.00,1137.50 Z" fill="black" stroke="none" /></svg>